<?xml version="1.0" encoding="utf-8"?>
<!-- Generator: Adobe Illustrator 21.0.0, SVG Export Plug-In . SVG Version: 6.00 Build 0)  -->
<svg version="1.1" id="Layer_1" xmlns="http://www.w3.org/2000/svg" xmlns:xlink="http://www.w3.org/1999/xlink" x="0px" y="0px"
	 viewBox="0 0 106 85.8" style="enable-background:new 0 0 106 85.8;" xml:space="preserve">
<style type="text/css">
	.st0{fill:#666767;}
	.st1{fill:#999999;}
	.st2{fill:url(#SVGID_1_);}
	.st3{fill:url(#SVGID_2_);}
	.st4{fill:url(#SVGID_3_);}
</style>
<title>logo_color_didi</title>
<desc>Created with Sketch.</desc>
<g id="Page-1_1_">
	<g id="logo_color_didi" transform="translate(17.000000, 31.000000)">
		<g id="Page-1">
			<g id="滴滴logo-svg">
				<g id="Group_3_">
					<g id="Shape_17_">
						
							<linearGradient id="SVGID_1_" gradientUnits="userSpaceOnUse" x1="-180.0227" y1="427.7847" x2="-180.0227" y2="428.7847" gradientTransform="matrix(105.7188 0 0 -85.7 19067.6406 36715.918)">
							<stop  offset="0" style="stop-color:#E58313"/>
							<stop  offset="1" style="stop-color:#EAA82D"/>
						</linearGradient>
						<path class="st2" d="M36.2,35.9c18.1-0.6,32.4-15,32.6-32.8l0-15.4h19.9v17c-0.4,27.6-24.4,49.4-52.5,50.1v0
							C7.6,54.6-16.6,32.6-17,4.7v-30.5c0-3.1,2-5.1,5.1-5.1l80.8,0v18.7l-63.3,0c-1.6,0-2.6,1-2.6,2.6V2.8
							C3.1,20.9,17.7,35.7,36.2,35.9L36.2,35.9L36.2,35.9L36.2,35.9z"/>
						
							<linearGradient id="SVGID_2_" gradientUnits="userSpaceOnUse" x1="-180.0227" y1="427.7848" x2="-180.0227" y2="428.7848" gradientTransform="matrix(105.7188 0 0 -85.702 19067.6445 36716.7852)">
							<stop  offset="0" style="stop-color:#E07D12"/>
							<stop  offset="1" style="stop-color:#EAA017"/>
						</linearGradient>
						<path class="st3" d="M67.4-29.5v15.7l-61.9,0c-2.4,0-4.1,1.6-4.1,4.1V2.8C1.5,12,5.2,20.6,11.7,27.1
							c6.5,6.5,15.1,10.2,24.4,10.3l0,0l0.2,0c18.9-0.6,33.8-15.6,34-34.3l0-13.9h17V4.7c-0.2,12.8-5.7,25-15.4,34.1
							c-9.6,9-22.2,14.2-35.5,14.5h-0.1C22.6,53.2,9.8,48.2,0,39.1c-9.8-9.2-15.4-21.4-15.6-34.4v-30.6c0-1.1,0.3-2,0.9-2.7
							c0.6-0.6,1.5-0.9,2.6-0.9h0.1L67.4-29.5L67.4-29.5L67.4-29.5z M68.8-30.9l-80.7,0H-12c-3,0-5,2-5,5.1V4.7
							c0.4,27.9,24.6,49.9,53.2,50.1v0c28.1-0.6,52.1-22.4,52.5-50.1v-17H68.8l0,15.4C68.6,21,54.3,35.4,36.2,35.9h0
							C17.7,35.7,3.1,20.9,2.9,2.8V-9.7c0-1.6,1-2.6,2.6-2.6l63.3,0L68.8-30.9L68.8-30.9L68.8-30.9L68.8-30.9z"/>
						
							<linearGradient id="SVGID_3_" gradientUnits="userSpaceOnUse" x1="-180.5227" y1="428.2847" x2="-179.5227" y2="428.2847" gradientTransform="matrix(105.7188 0 0 -85.7 19067.6406 36715.918)">
							<stop  offset="0" style="stop-color:#ECCC49;stop-opacity:0.1"/>
							<stop  offset="0.1413" style="stop-color:#ECCC49;stop-opacity:8.590000e-02"/>
							<stop  offset="1" style="stop-color:#ECCC49;stop-opacity:0"/>
						</linearGradient>
						<path class="st4" d="M36.2,35.9c18.1-0.6,32.4-15,32.6-32.8l0-15.4h19.9v17c-0.4,27.6-24.4,49.4-52.5,50.1v0
							C7.6,54.6-16.6,32.6-17,4.7v-30.5c0-3.1,2-5.1,5.1-5.1l80.8,0v18.7l-63.3,0c-1.6,0-2.6,1-2.6,2.6V2.8
							C3.1,20.9,17.7,35.7,36.2,35.9L36.2,35.9L36.2,35.9L36.2,35.9z"/>
					</g>
				</g>
			</g>
		</g>
	</g>
</g>
</svg>
