<svg viewBox="0 0 16 16" fill="#ffffff" xmlns="http://www.w3.org/2000/svg" id="Netease-Cloud-Music-Line--Streamline-Remix" height="16" width="16">
  <desc>
    Netease Cloud Music Line Streamline Icon: https://streamlinehq.com
  </desc>
  <path d="M6.948133333333333 7.583333333333333c-0.19626666666666664 0.6850666666666667 0.007933333333333334 1.3763333333333332 0.5224 1.7688 0.7074666666666666 0.5396 1.7102666666666666 0.20046666666666668 1.9158666666666666 -0.6634 0.05353333333333333 -0.22486666666666666 0.06913333333333332 -0.48139999999999994 0.018066666666666665 -0.7042666666666666 -0.1528 -0.6674 -0.34713333333333335 -1.3253866666666667 -0.528 -1.9971733333333335 -0.8869333333333334 0.10299333333333333 -1.6949999999999998 0.7815733333333333 -1.9283333333333332 1.59604Zm3.6984 -0.19140000000000001c0.1819333333333333 0.6748666666666666 0.1903333333333333 1.344933333333333 -0.0842 1.9997333333333334 -0.7524666666666666 1.7939333333333334 -3.148 2.0940666666666665 -4.38266 0.5507333333333333 -0.86748 -1.0844666666666667 -0.8525733333333334 -2.6403999999999996 0.04020666666666667 -3.8221933333333333 0.5198533333333333 -0.6882333333333334 1.2027199999999998 -1.1380599999999998 2.0318533333333333 -1.3695733333333333 0.08206666666666666 -0.022906666666666665 0.16433333333333333 -0.04529999999999999 0.25266666666666665 -0.06958666666666666 -0.05566666666666667 -0.27614 -0.12506666666666666 -0.5436333333333333 -0.1615333333333333 -0.8155266666666666 -0.11786666666666668 -0.8779399999999999 0.34113333333333334 -1.6690066666666665 1.1625999999999999 -2.0272533333333334 0.8169333333333333 -0.35630666666666666 1.8052666666666666 -0.14357333333333333 2.3537999999999997 0.5066533333333333 0.2698 0.31976666666666664 0.2627333333333333 0.7207733333333333 -0.0172 0.9765333333333334 -0.2749333333333333 0.2512133333333333 -0.6644 0.23028666666666667 -0.957 -0.06066666666666666 -0.16446666666666665 -0.16355333333333333 -0.3394 -0.2933733333333333 -0.5844 -0.2903266666666666 -0.3497333333333333 0.004359999999999999 -0.6578666666666666 0.2787533333333333 -0.6301333333333333 0.6250666666666667 0.024933333333333335 0.31184 0.11513333333333332 0.6203133333333333 0.19999999999999998 0.9237533333333332 0.014533333333333332 0.051913333333333325 0.144 0.09015333333333332 0.22519999999999998 0.10212 0.8892666666666666 0.13101333333333331 1.6693333333333333 0.48747999999999997 2.3152666666666666 1.11706 1.7049333333333332 1.66194 1.9071333333333333 4.354473333333333 0.4478 6.293673333333333 -1.0192666666666665 1.3543333333333332 -2.4064666666666668 2.1121999999999996 -4.084866666666667 2.272333333333333 -3.080913333333333 0.294 -5.776046666666667 -1.6859333333333333 -6.466013333333334 -4.705C1.6764666666666665 6.836733333333333 3.226466666666666 3.8871599999999997 5.863393333333333 2.833546666666667c0.39038666666666666 -0.15598 0.7618533333333333 -0.021086666666666663 0.9142066666666666 0.33196666666666663 0.15453333333333333 0.3581266666666666 -0.012933333333333333 0.7237466666666666 -0.4072533333333333 0.9001333333333333 -1.57862 0.7062666666666666 -2.5441133333333332 1.9028199999999997 -2.80984 3.615353333333333 -0.3551333333333333 2.288733333333333 1.1039066666666666 4.517799999999999 3.333893333333333 5.1475333333333335 1.8152 0.5126 3.7718666666666665 -0.11133333333333334 4.871866666666667 -1.5536666666666665 1.0573333333333332 -1.3863333333333332 0.9326666666666666 -3.399466666666666 -0.28486666666666666 -4.5822666666666665 -0.3366 -0.3270133333333333 -0.7316666666666666 -0.5495666666666666 -1.2155333333333331 -0.6755066666666667 0.1324 0.47724666666666665 0.25939999999999996 0.9253066666666667 0.3806666666666666 1.37484Z" stroke-width="0.6667"></path>
</svg>
