<?xml version="1.0" encoding="UTF-8"?>
<svg id="R" xmlns="http://www.w3.org/2000/svg" version="1.1" viewBox="0 0 5075 5930">
  <defs>
    <style>
      .cls-1 {
        fill: #0000005e;
        stroke-width: 0px;
      }
    </style>
  </defs>
  <path class="cls-1" d="M1511.2,4.8h3.9c1.8,5.6,5.3,8.6,11.5,7.9,4.9-.5,10.5,1.5,14-3.9.5.5.9,1,1.4,1.4,1.2.9,2.1,3.5,4.2.8,2.4-3,5.3-3.4,8-.3,2,2.2,4.4,3,6.6,1.1,2-1.6,3.6-3.3,6.6-3.1,5.2.3,10.5.6,15.7,0,5.6-.8,9.5,3.1,14.1,3.7,8.3,1.2,17,.9,25.4.2,8-.7,17,4,23.9-3.8,10.5,0,20.9.3,31.4-.2,3.9-.2,5.5,2.7,8.2,3.9,1.6.7,3.9-.2,5.8.2,4.3.8,6.9-3,10.2-3.6,3-.6,6.6,2.5,10.1,3.4,1.7.4,4.4.3,5.4-.8,2.5-2.8,5.3-3.2,8.7-3,3.3.2,6.7-.6,9.8.2,2.8.7,4.3,4.4,8.2,3.9,4.5-.6,9.1,0,13.7,0s10.6.8,15.7-.2c5.3-1,7.8,4.1,12.1,4,6.2,0,12.9,1.9,18.1-3.7.5-.6,3.1-.3,3.6.3,2.7,3.9,6.5,3.5,10.4,3.5,15.7,0,31.4,0,47.1,0,3.5,0,5.8-1.3,8.6-3.1,1.8-1.1,4.1,3.5,7.8,3.2,7.8-.5,15.7-.2,23.5-.2s15.8-.6,23.5.2c8,.8,17-4.1,23.9,3.7,7.8,0,15.9-1,23.5.4,7.7,1.4,12.4-5.9,20.1-4.5,7.6,1.4,15.6.3,23.5.3s14.4-.2,21.6,0c3.7.2,8.1-1.9,11.1,1.5,4.3,4.9,5.5-3.5,9.3-1.7,2.1,1,5.1-.4,7,2.1.5.7,2.4,1.3,2.6,1,4.2-5.2,7.4-3,11.1.7.7.7,3.9,0,5-1.2,2.1-1.9,4.8-3.9,6.6-2.1,3.9,3.8,6.3,4.4,11.3.7,3.6-2.7,9.6-2.2,14.3.9,1.5,1,3.4,1.8,5.1,1.9,11.1.2,22.2,0,33.4,0s21,.5,31.4,0c10.6-.6,21.9,3.3,31.7-3.8,5.9,0,11.8.3,17.7,0,5.5-.4,11.9,2.5,16.1-3.8,2.4,3.8,6.1,4.1,10.1,4,6.5-.2,13.1,0,19.6,0s14.4.5,21.6,0c6.6-.6,12.4,1,18,4.1,17.7,0,35.3-.2,53,.2,3.6,0,5.7-4.5,7.7-3.1,2.8,1.9,5.3,3.1,8.7,3,7.8-.2,15.7-.4,23.5,0,9.4.5,19.2-2.6,27.9,3.7.7.5,3.5-1.2,4.6-2.4,1.3-1.5,1.8-1.7,2.9,0,.6,1,1.8,1.6,2.7,2.3,2.8-5,8.8-2,11.8-4.4,4.5-3.7,7.4-4.4,11.2.2.6.7,3,1,3.5.4,5.2-5.5,11.9-3.7,18.1-3.7s3.6,1.3,4.7,2.5c1.3,1.4,1.8,1.6,2.9,0,1.6-2.4,4.4-3.7,6.5-2.1,2.6,2,4.8,3.6,8.4,3.6,54.3,0,108.6,0,162.8,0,3.4,0,5.8-1.2,8.6-3.1,3-2,7.3-2.2,10.4,1.2,2,2.2,4.5,2.8,6.6.8,2-1.9,3.8-3,6.7-3,17,.2,34,.2,51,0,3.8,0,5.8,3.4,8.2,3.7,3.7.4,5.4,3,8.2,4.2,3.7,1.6,5.3-3.2,8.2-3.6,2.9-.4,6.5-1.4,9,1.7,1.8,2.3,4.3,3,6.6,1.2,2-1.6,3.6-3.2,6.6-3.2,19,.2,37.9,0,56.9.2,1.6,0,3.4,1.3,4.9,2.3,4.1,3.1,8.8.8,13.1,1.5,4.8-6.7,11.9-3.5,18-3.8,8.5-.5,17-.3,25.5,0,2.9,0,4.7-1,6.8-2.8,2.6-2.4,3.6,3.6,5.3,2,2.6-2.4,5.1-3.3,8.6-3.3,29.4,0,58.9,0,88.3,0,3.6,0,5.8,1.3,8.5,3.5,2.1,1.7,4.9.5,6.5-1.9,1.1-1.6,1.7-1.7,2.8-.3,3.2,4.1,6.2,3.5,9.6,0,1-1,4.3-1.4,5-.7,6,6.3,13.2,2.8,20,2.9,3.7-5.5,9.4-3,14.3-3.3,5.9-.3,11.8,0,17.7,0h33.4c5.2,0,10.6.8,15.7-.2,6.4-1.3,10.5,3.8,16.1,4.1,7.2.3,14.4.7,21.6,0,7.4-.8,15.7,3.7,22-3.7,1.4,1.2,2.8,2.5,4.2,3.7,6.3-7.3,14.6-2.7,22-3.6,5.8-.7,11.8,0,17.6-.2,3.8,0,7-.4,10.7-2.7,5.1-3.1,23.6-1.3,30,.8.9.3,2.4,1.3,2.7,1,7.5-8,19.6,2.3,26.6-6.9,2.1,1.3,3,4.2,6.2,3.9,3.9-.3,7.8,0,11.8,0s5.8.7,8.8,2.6c2.6,1.7,5.3-3.4,9.6-2.9,7.1.9,14.4,0,21.6.3,3.5,0,6.1-.8,8.5-3.3.8-.8,4.2-.6,5,.4,2.5,2.9,5.4,3,8.7,2.9h53c2.7,0,4.7.6,6.9,2.4,3,2.3,3.4,2,6.6.2,1.1-.6,1.9-2.4,2.9-2.4,10.5-.2,20.9.2,31.4-.3,3.9-.2,5.4,3.2,8.2,3.9,2.3.6,6.2.9,7.4-.5,3.1-3.5,6.7-3.3,10.5-3.3,22.9,0,45.8.6,68.7-.2,11.9-.4,24.5,4.2,35.7-3.7h33.4c8.4,7.6,18.5,2.6,27.8,3.8,4.5.6,9.1,0,13.7.2,1.2,0,2.8.4,3.4,1.1,2.1,2.7,3.2,2.2,5.8.2,2.8-2.2,6.4-3.2,9.6-5.1,3.3-2,5.1,3.6,8.1,3.5,4.3,0,9,2.1,13-1.8,1.2-1.2,3.3-1.7,5-1.8,4.6-.2,9.2,0,13.7,0s8,.6,11.7,0c5.1-1,8.1,3,12.2,3.9,1.4.3,3.5-1.2,4.7-2.5,1.3-1.4,1.6-1.4,2.9,0,3.6,4.1,7.7,3.7,11.9.9,1-.7,2-2.1,3-2.2,7.2-.2,14.4,0,21.6,0,7.8,6.4,17.2,3.1,25.8,3.9,1.2,0,3,0,3.5.8,2.3,3,5.2,3.2,8.6,3.2s7.6,0,10.4-3.7c.5-.6,4,0,5,1,3.9,3.9,7.8,3.5,12.1,1.2,1.6-.9,3.2-2.3,4.9-2.4,9.8-.2,19.7-.7,29.4,0,9.3.7,19.4-3.8,27.9,3.7.6.5,2.9.2,3.5-.5,2.3-2.8,5-3.8,8.5-3.3,4.9.6,10.6-2.1,14.2,3.6,6.5,0,13,.3,19.5.3s4.7.6,7,2.3c4,2.8,4.3,2.4,6.6.4,1.5-1.3,2.9-2.7,4.2-4.2,2.5-2.8,5-3.6,8.2-.8,1.3,1.1,3.2,2.2,4.9,2.2,6.2,0,12.9,1.7,18-3.8,7.2,0,14.4,0,21.6,0,7.5.2,15.1-1.3,22.1,3.7,2,1.4,6.5,1.2,8.6-2.2,1.1-1.7,1.8-1.8,2.8-.2,2,3.2,3.5,2,5.7,0,1-1,3.6-1.1,5.1-.7,1.7.5,3.1,3.4,4.4,3.2,6.1-.6,13.1,3,18.2-3.2,5-.4,10-1.9,14.6,1.6,1.4,1,3.4,1.6,5.1,1.7,4.4.2,9.1-.8,12.3,3.8.4.6,3.2.7,3.6,0,3.7-5.4,9.2-3.8,14.2-3.8,9.8,0,19.6,0,29.4,0s11.4,1,16.2-3.7c1.3-1.2,6.1-1,7.3.4,3.1,3.5,6.6,3.4,10.5,3.4h25.5c2.5,0,6.3.6,7.4-.8,3.7-4.5,8.3-3.1,12.6-3,4.9,0,10.5-2.1,14.4,3.4.5.7,3.9.2,5-.8,4.7-4,9.1-4,13.4,0,1.2,1.2,1.7,1.1,2.9-.4,2.4-3,5.2-3.7,8-.6,2,2.2,4.6,3.3,6.6,1.3,2.6-2.5,5.2-3.4,8.6-3.2,3.3.2,6.5,0,9.8,0h13.7c5.2,0,10.5-.4,15.7,0,3.6.4,7-7.5,10.5-.2h66.8c4.6,0,9.3.8,13.7-.2,5.3-1.2,7.8,4,12.2,4.1,5.9.2,12-1,17.6.3,7.2,1.7,11.3-4.6,18.1-4.4,26.8.6,53.6.2,80.4.3,2.6,0,6.3-.7,7.4.6,4.2,5.1,9.6,3.1,14.5,3.2,11.8.2,23.5,0,35.3,0s6.2,1.1,7.7-.2c6.1-5.5,13.3-3.4,20.1-3.7,4.6-.2,9.5,1.1,13.6-.3,6.3-2.1,8.8,5,14.2,4.3,1.7-.2,4,0,5.3,1.2,3,2.4,6.6,5,8.2,8.3,1.8,3.7-.6,9.1,4.4,11.9,0,6.5-.4,13.1.2,19.6.6,6.7-3.2,14.3,3.7,19.9-.5.5-.9,1-1.4,1.4-2.5,1.7-2.3,4.2-2.5,6.9-.2,3.1,1.5,6.6-1.7,9.1-2.5,1.9-2.3,4.4-2.1,7,0,1.2,0,3,.7,3.6,2.8,2.3,3.4,5.1,3.3,8.5-.2,7.8,0,15.7,0,23.5s-.7,4.3.1,5.8c1.6,3.1,5.3,5.5,0,8.8-.9.6-.2,3.7-.2,5.7v29.4c0,1.8-.7,3.6-1.3,5.3-3.6,10.5-4,13.6.5,25.1,2.1,5.3-2.4,12,3.9,16,.2.2.3,1.1.1,1.3-6.1,5.2-2.7,12.2-3.1,18.3-.5,7.2,0,14.4-.2,21.6,0,3.9-.2,7.6,3.5,10.4.7.5.2,3.9-.8,5-1.9,2-2.9,3.9-2.8,6.8.2,5.9.4,11.8,0,17.6-.4,6.1,2.7,13.2-3.8,18,0,9.2.3,18.3-.1,27.5-.2,3.9,3.4,5.4,3.9,8.2.5,2.9,1.4,6.4-1.6,9-3.4,3-3.3,7.6-1.3,10.4,4.7,6.5,3.2,13.2,2.1,20-4.3,2.5-3,6.8-3,10.5v86.3c0,4.5-.9,9.2,3.9,12.1-.6,3,1.5,6.5-1.3,9.2-.9.9-2.3,1.8-2.4,2.9-.3,3.2-.1,6.5-.1,9.8s.2,6.6,0,9.8c-.3,3.1,1.6,6.6-1.6,9.1-4.6,3.7,1.8,4.6,1.7,7.3-.2,4.6,0,9.2,0,13.7s4.9,3.4,2.8,5.7c-2.6,2.8-2.9,5.5-2.8,8.7v37.3c0,1.8.1,4.3,1.2,5.3,4.8,4.3,1.7,9.8,2.6,14.7-6.2,4.1-3.5,10.5-3.8,16-.4,5.9.1,11.8-.2,17.6,0,1.6-2.1,3-2.8,4.7-1.3,3,3,3.3,3,5.8,0,7.8.2,15.7,0,23.5-.3,8.1,2.1,16.6-3.8,24-.4.6.2,2.7.9,3.4,2.1,1.9,3.5,3.4.4,5.7-.8.6-1.3,2.2-1.3,3.3v41.2c0,1.3-.5,3.3.1,3.8,8.7,6.2-.9,18.2,7.7,24.3-1.3,7.4,3.1,15.6-3.3,22.2-.2,7.1-.4,14.2-.6,21.3-.1,3.9-.4,7.7,3.4,10.5.7.5.4,4.2-.6,5-3,2.5-2.8,5.5-2.8,8.7,0,5,1.6,10.6-3.9,14.1.6,3-1.1,6.2,1.4,9.3,3.7,4.4,4,8.9-.4,13.4-.9.9-1.1,4.4-.3,5,3.4,2.8,1.8,4.2,0,7.3-1.7,2.8-1.6,7.1,1.6,10.6,2.6,2.9,2.5,3.7.3,6.4-1.8,2.2-2.6,4.1-2.6,6.9.1,13.7,0,27.5,0,41.2s-.5,6.6,2.9,8.6c1.3,7.5,2.8,15.3-1,22.2-1.7,3.2-1.9,6-1.9,9,0,12.4-.2,24.9,0,37.3.1,4.9-2.2,10.6,3.2,14.4,0,0-.9,1.9-1.6,2.6-2.1,2.1-2.4,4.3-.6,6.7.4.5,1.2.9,1.3,1.4,1.9,5.5,3.2,10.7-1.1,16-2.3,2.8-2.1,3.4.3,6.5,1.7,2.2,3.6,4.9,1.7,6.6-3.5,3.1-3.4,6.6-3.4,10.5,0,22.2-.1,44.5.1,66.7,0,7.4-2.2,15.5,3.8,22,.3.4.3,1.5,0,1.9-1.1,1.5-3.5,3.1-3.3,4.4.3,2.2,3,4,3.2,6.1.3,5,1.7,10.5-3.7,14.1,0,3.9-.9,8.2.5,11.6,1.1,2.7,3.6,3.6.6,7.3-2,2.4-1,7.4-1,11.2s1.1,2.3,2,3c2.5,2,1.3,4.8,2,7.1.8,2.9,3,5.4,3.6,8.3.5,2.3.2,5.4-1.1,7.2-1.6,2.2-2.7,4-2.7,6.8.2,9.8,0,19.6.1,29.4,0,5-1.4,10.4,3.8,14.3.5.4-.8,3.3-1.5,5s-1.6,3.2-2.3,4.9c-1.1,2.8,6.1,3.6,1.8,7.3-3.5,3.1-1.5,7.3-1.8,11-.3,3.2,0,6.5,0,9.8s-1.1,6.2.2,7.7c7.1,8,2.6,17.4,3.6,26,.6,5.2.1,10.4.1,15.7s-.6,9.3.2,13.7c1,5.6-3.4,9.5-3.8,14.1-.9,9.7-.5,19.6-.2,29.4.1,5.5-2.1,11.8,3.9,16-.6,3,1.4,6.6-1.6,9.1-3.6,3-3.2,7.5-1.5,10.5,1.6,2.8,3.4,5,3.2,8.5-.2,7.8.1,15.7-.1,23.5-.3,8.1,2.1,16.7-3.9,23.9,1.8,8.6-4,18.2,3.7,25.9,0,8.5.2,16.9.2,25.4s1.6,10.6-3.9,14.1c.7,3-1.6,6.7,1.5,9.2,2.3,1.9,2.5,4.1,2.5,6.9-.1,11.8.2,23.5-.1,35.3-.2,6.8,2.3,14.3-3.8,20,.2,3.9.3,7.7.5,11.6,5.5,3.7,3.4,9.4,3.3,14.3-.2,5.5,2.3,11.7-3.2,16.4-.8.6-.4,3.9.6,5,1.7,2.1,3,3.8,2.9,6.7-.3,5.2.1,10.5-.1,15.7-.3,5.5,2.2,11.8-3.8,16,5.4,2.9,1.9,5.6,0,8.6-.5.8-.2,2.9.5,3.5,2.8,2.3,3.6,5,3.4,8.5-.3,3.2,0,6.5,0,9.8-.2,7.5,1.6,15.3-3.8,22-.6.8.3,2.7-.2,3.8-1.6,3.6,5.5,4.6,2.6,7.6-2.8,2.8-2.4,5.7-2.6,8.8-.4,6.2,1.9,12.9-3.8,18.1-.6.5-.3,3.1.3,3.6,3.9,2.7,3.6,6.5,3.5,10.4v41.2c0,2.5-.6,6.2.7,7.4,3.6,3.1,3.2,6.8,3.2,10.6v131.4c0,43.8.8,4.5-.1,5.8-2.7,3.8-4.5,7.4-3.9,12.2.1.9-1.7,1.8-2.3,2.9-2,3.7-2.5,4.5-.1,6.5,3.2,2.7,1.7,7.3,5.3,9.8,2.3,1.6-2.1,2.7-1.8,4,.5,2.1,2.3,3.9,2.9,6,.5,1.8.2,3.9,0,5.9,0,.6-.4,1.2-.8,1.6-2,1.7-3.6,3.6-3.1,6.6,1.1,6.7-3,14.4,3.9,20-1.3,7.9,3.8,16.9-3.8,23.8,0,13.1,0,26.1.1,39.2,5.6,3,.8,5.6,0,8.6-.8,3.6-1,6.9-3.2,10.6-2.3,3.8-1.8,9.4,1.1,14.4,2.9,4.9,3,9.5.5,14.3-1.3,2.5-1,3.2-.2,5.8,3.5,10.6.9,21.7,1.3,32.7-5.7,3.5-3.4,9.2-3.7,14.1-.3,5.2-.8,10.6.2,15.6.8,4.1,4.1,7.2,3.9,12.2-.5,13.1-.2,26.1-.2,39.2s.5,5.1-2,7.1c-.7.5-1.2,2.5-1,2.6,4.3,2.7,2.9,6.9,2.9,10.6v76.5c0,2.5-.2,5.8,1.2,7.2,4.6,4.5,2.1,9.8,2.4,14.7.1,1.3-3.3,2.7-3.5,4.3-.5,3.8-.4,7.8-.1,11.7.2,3.1-1.5,6.6,1.5,9.1,4.9,4.1-3.9,5.6-1.6,9.2.7,1,1.5,2,2,3.1.5.9,1.2,2.4.9,2.7-3.6,3.1-4.4,6.1-.4,9.6,3,2.6.7,6.2,1.4,9.2-5.1,4.6-6,9.5-.9,14.8-1,2.6-2.6,5.1-2.9,7.8-.5,4.5-.1,9.1-.1,13.7v13.7c0,4.6.3,9.2,0,13.7-.4,4.3,2.2,9.2-2,12.8-6,5.1,2.3,7.4,2.1,11.4,0,1.2-.4,2.7-1.2,3.4-4.1,3.7-3.6,7.8-1.3,12.1.9,1.6,2.4,3.2,2.4,4.8.2,24.8.1,49.7.1,74.5-2.8,4.3-4.8,8.6-4,14.1.6,4.5.1,9.1.1,13.7s-.5,10.5.1,15.7c.9,8.1-3.4,16.9,3.2,24.2-5.7,7.2-2.5,15.7-3.2,23.6-.3,3.2,0,6.5,0,9.8-.2,4,0,7.6,3.6,10.4.6.5,0,3.9-1,5-4.5,5.2-3.9,11.2-.9,15.8,2.7,4.3,2.7,6.7-.9,9.7-.1,8.3-.2,16.6-.3,24.9,5.5,3.7,3.1,9.4,3.3,14.3.3,5.9.4,11.8,0,17.6-.5,6.1,2.6,13.1-3.4,18.2-.1,0,.3,1.1.6,1.3,4.7,3.3,2.7,8.3,2.8,12.6.2,5,1.4,10.2-3.6,14.3-1.3,1-1.2,6.3.1,7.3,4.3,3.6,3.6,7.9,3.6,12.4s.3,6.6,0,9.8c-.4,3.6-4.7,5.6-4,10.2,2.2,13.1-4,26.9,3.8,39.7,1.5,2.4.5,6.4.2,9.7-1,10,2.7,20.4-3.7,29.9-1.5,2.3-1.6,7.6,0,9.4,5.1,5.6,3.3,12,3.6,18.2.2,3.9,0,7.8,0,11.8s-.6,6.7.1,9.8c1.2,4.7-4.3,6.1-4.1,10.2.2,4.6.1,9.1.2,13.7,7.3,3.6-1.4,7-.2,10.6.6,1.8.1,3.9.7,5.6,3.5,10.1,4.1,15.9,2.4,23.8-4.5,2.8-.9,4.5.5,7.1,1.1,2,1.4,6,.1,7.5-6,7.1-4.8,13.3-.1,20.6,1.7,2.7,1.4,8.5-.4,11.2-4.4,6.8-4.4,12.4,0,19,1.4,2.1.8,6.3-.4,9-.9,2.2-3.3,3.7-2.8,6.7.8,5.5-2.4,11.9,3.9,16-1,4.8,2,10.1-2.5,14.7-2.7,2.8-2.7,7.4.3,10.4,3.3,3.4,3.5,8.1,1.5,10.4-2.9,3.5-3.3,6.7-3.2,10.6.2,6.2-.3,12.1,3.6,18.2,3.5,5.6-6.2,10.8-3.6,17.8,1.3,3.6-1.3,6-3.8,8.2,1.4,2,4.2,3,4,6.2-.3,3.9-.3,7.9,0,11.8.3,4.3-1.9,9.3,2.9,12.5-.1,3.5-3.6,5.6-3.2,9.8.8,8.4.2,17,.3,25.5,0,1.9-.3,4.7.8,5.4,4.8,3.5,2.8,8.3,3,12.6.3,5.2.3,10.5,0,15.7-.3,4.9,2.1,10.6-3.6,14.2,5.1,3.6,3.7,9,3.7,14v82.4c0,27.5-.2,9.2,0,13.7.2,4.6.3,9-4,12.1,0,10.5.3,20.9-.1,31.4-.2,3.9,3.2,5.3,3.9,8.2.6,2.4.3,5.2-.4,7.6-3.6,10.9-5.3,14.8-2.2,19.6,2.3,3.7,2.7,6.9,2.8,10.7,0,3.9-.6,8,.2,11.7.9,4.6-4,6.4-4,10.2s-1.7,10.5,3.8,14c-7.7,4.2,2.7,8.2.2,12.5-.8,1.5-.1,3.8-.1,5.8v13.7c0,3.9-.4,7.9.1,11.8.6,4.6-1.6,8-3.3,11.8,5.1,3.1,2.8,8.1,3.1,12.4.2,3.1,1.1,6.6-2.3,8.8-1.7,1.1-1.5,1.6-.4,2.8,4,4.4,3.9,8.6,0,13.5-2.3,2.9,3.1,4,2.9,7.6-.6,11.7-.3,23.5-.2,35.3,0,3.4-.6,6.1-3.2,8.6-.8.8-.7,4.2.2,5,2.8,2.5,3.1,5.3,3,8.7v60.8c0,20.3-1.1,6.3.2,7.7,5.2,5.5,3.8,12,3.5,18.2-.1,2.8-3.1,5.4-3.6,8.2-.6,4.5-.2,9.1-.2,13.7v25.5c0,4.6,0,9.1-.1,13.7-7.3,3.6.4,7,.3,10.5-.5,12.4-.2,24.8-.2,37.3s-.8,7.9,3.3,10.5c0,0-.8,2-1.6,2.6-1.5,1.1-1.8,2-.6,2.8,2.6,1.8,1.9,2.9.5,5.7-2.4,5-3.7,10.8,1.2,15.9,1,1,1.4,4.2.6,5.1-2.4,2.5-3.6,4.9-3.5,8.5.3,8.5,0,17,.1,25.5,0,1.9-.3,4.4.7,5.5,5.1,5.3,4.8,10.1-.3,15.1,0,0,3.4,3.7,3.2,3.8-7.8,8.5-3,18.7-3.5,27.9-.8,17.6-.2,35.3-.3,53,0,4.9,1,10.1-3.5,13.9,7,4.4,1.5,8.4-.3,12.7-.7,1.7-1,4.7,0,5.7,5.4,5.3,3.3,11.9,3.9,18.1.2,1.7,1.6,3.2,2.4,4.9,1.8,3.4,2.2,3.8,0,6.6-1.8,2.2-2.5,4.2-2.5,6.9.1,11.8.5,23.6-.1,35.3-.4,8,3.4,16.8-3.7,24-.6.6-.3,2.9.4,3.6,2.7,2.3,3.5,4.9,3.5,8.5-.2,16.3-.2,32.7,0,49,0,3.5-1.5,5.8-3.2,8.6-1,1.7,3.9,4,3.2,7.8-1,5.4,2.2,11.9-4,16,0,7.2.2,14.4,0,21.6-.1,3.3,3.4,3.9,3.9,6.2.5,2.5,1,6.3-.3,7.5-3.4,3.1-3.6,6.5-3.5,10.5.1,3.9-.5,7.9.2,11.7.8,4.2-2.3,6.6-3.4,9.9,4.3,2.5,2.8,6.7,3.3,10.4.7,5.5-2.6,11.9,3.7,16.1-3.4,2.8-4,5.5,0,8.3-1.2,1.5-3.2,2.8-3.5,4.4-.6,3.2-1.3,7.1,0,9.7,3.8,7.1,6.6,13.6.2,20.6-.1.2.2,1.1.5,1.3,4.7,3.3,2.3,8.3,2.9,12.5.9,6-1.7,10.1-7.2,11.9-4.6,1.6-8.2,5.2-14.1,4.3-7-1.1-14.4-.4-21.5-.2-1.6,0-3.6,1.2-4.8,2.5-1.3,1.4-1.8,1.6-2.9,0s-2.8-2.8-4.1-4.2c-2.6-2.8-5.3-3.6-8.1-.5-2,2.4-4.5,2-7,2.1-6.9.1-14-1.3-20.1,3.7-.6.5-3.5-1-4.7-2.2s-1.8-1.7-2.9-.4c-2.2,2.7-5,4.8-8,1.3-5.2-6-14.6,1.6-19.1-6.3-.3-.6-2.5-.3-3.8,0-1.8.4-3.9.7-5,1.9-2.1,2.2-4.7,1.5-7.1,2.1-2.9.8-5.4,2.8-8.2,3.7-3,.9-4.5-3.5-6.3-3.4-8,.5-16.8-4.1-23.9,3.4-.6.6-3.3.6-3.7,0-3.1-4.7-7.8-3.3-12.2-3.9-6.7-.9-12.1,2.2-18.1,3.8-5.5,1.5-11.6.6-17.4.8-5.2,8.4-9.7-1.2-14.6-.6-2.6.3-5.2,0-6.8,2.5-1,1.7-1.6,1.4-2.9.4-5.7-4.6-11.3-4.4-17.4,0-3.1,2.3-7.2,2.3-10.5-.5-1.5-1.3-2.2-2.1-4.3-.4-4.3,3.5-10.4,3.6-14.2.9-3.7-2.6-7-2.6-10.7-2.8-4.4-.1-8.8.7-12.4-3.6-1.1-1.3-6.2-1.4-7.3-.1-3.6,4-7.8,3.9-12.3,3.8-4.2,7.9-8-3.1-12.6-.3-2.4,1.5-6-.5-9,2-4.2,3.6-9.6,2.7-14.4,1.2-9.2-2.7-18.1-2.5-26.6.7-1.4.5-3.6-.5-5.2-1.1-1.1-.4-1.9-1.6-2.8-2.4-2.5,4.7-5.4,2.4-8.3.5-3.8,4.9-7.4,4.3-10.9-.3,0,0-1,.4-1.3.8-3.1,3.9-6,3.8-9.7.3-1.5-1.4-4.7-1.2-7.2-1.3-5.2-.2-10.5,0-15.7,0h-45.1c-5.2,0-10.4.1-15.6.2-3.6,7.3-6.9-.9-10.6-.4-5.1.8-10.4.2-15.7.2-7.8,0-15.7.2-23.5,0-7.5-.3-15.4,2.1-22-3.8-.4-.3-1.3,0-1.9,0-2.4,0-2.9,5.1-5.6,2.7-2.4-2.2-3.8-2.9-5.7,0-.3.5-1,1.1-1.4,1.1-7.8,0-15.7.5-23.5,0-8-.6-16.9,3.3-24-3.7-.6-.6-3.1-.3-3.5.4-2.7,4-6.6,3.4-10.4,3.4h-29.4c-3.9,0-7.1.2-10.6,3.2-2.4,2-7.4,2.2-10.3-1.5-2.2-2.7-2.9.2-4.2.9-3.2,1.8-3.2,1.9-6.7,0-1.1-.6-1.9-2.4-2.9-2.4-9.1-.1-18.2,0-27.4.1-5,6.3-12,2.9-18.1,3.6-3.2.4-6.5.2-9.8,0-3.1-.2-6.5,1.3-9.1-1.8-3.6-4.4-4.5,2.8-7.3,1.9-1.2-.4-2.8-.3-3.5-1-1.9-2.1-3.3-3.4-5.8-.4-1,1.1-4.6,1.9-5,1.3-2.7-3.7-6.3-3.9-10.3-3.8-6.5.2-13.1.3-19.6,0-7.1-.4-13.4,1.7-20.1,3.6-6,1.7-13-.1-19.5.6-4.2.5-6.5-2.5-9.9-3.4-2.5,4.3-6.7,2.9-10.5,3.2-1.8.1-4.2,0-5.4,1.1-2.1,1.9-3.4,3.2-5.7.3-2.4-3-6.2-.6-9.2-1.4-3.8-1-5.5,2.2-8.1,3.7-2.4-4.1-6.3-3.7-10.3-3.6-6.5,0-13.1-.1-19.6,0-3.4.1-5.8-1.2-8.6-3.1-2.1-1.4-7.2-1.4-8.8.1-4.6,4.5-7.6,3.3-11.2-.8-.6-.7-3.2-.7-3.6-.1-3.7,5.3-9.2,3.8-14.2,3.8-17,0-34-.1-51,.1-4.2,0-7-1.8-10.3-3.7-2-1.1-4.3-2-6.5-3.1-1.1-.6-4.3,3.1-5.7,2.6-6.1-2.4-8.9,4.5-14.2,4.2-5.2-.3-10.5,0-15.7,0h-27.5c-4.4,0-8.8.7-12.4-3.6-1.1-1.3-6.3-1.4-7.3-.1-4.1,5-9.3,3.6-14.3,3.7-4.6.1-9.2.5-13.7-.1-3.8-.5-5.4,2.4-8.1,3.7-2.4-4.1-6.4-3.6-10.3-3.6s-4.7.3-5.5-.7c-2.9-3.9-6.8-3.3-10.6-3.2-4.4.1-9.1-1.3-12.4,3.5-.5.7-3.9.2-5-.8-2.1-1.9-3.9-2.9-6.8-2.8-5.2.3-10.5,0-15.7,0s-10.5-.2-15.7,0c-5.5.3-11.7-2.2-16,3.7-3.5-5.7-9.2-3.2-14.1-3.8-3.4-.4-5.9.9-8.7,2.9-2,1.5-7.4,1.7-8.8.2-4.5-4.9-9.7-3-14.6-2.9-5.5.1-11.9-2.6-16.2,3.5-3.7,0-7.3,1.4-10.8-2.1s-6.9-2.3-10.5-.2c-1.6.9-3.3,2.6-4.8,2.4-7.4-.7-15.6,2.9-21.9-3.8-12.4,0-24.9-.1-37.3.1-1.5,0-2.9,2.4-4.6,3-3.6,1.2-7.5,2.1-10.5-1.3-1.9-2.2-2.8-.6-4.3.4-1.5.9-4.6,2.1-5,1.6-3.9-5.1-9.3-3.4-14.2-3.9-4.1-.4-7.4.6-10.1,3.8-7-7.4-16-2.8-24-3.5-8.4-.8-17-.2-25.5-.2-21.6,0-43.2-.1-64.7,0-6.8,0-14.2-2.1-20,3.9-2.6-1-5.5-3.2-7.7-2.6-2.1.6-3.8,2.9-6.7,2.7-3.9-.3-7.8,0-11.8,0s-8-.7-11.7.2c-4.7,1.1-6.2-4.3-10.2-4.1-2,0-5-.8-5.7.2-3.3,4.5-7.8,3.8-12.3,3.8s-7.9.1-11.8,0c-3.7-.1-8,1.3-10.5-3-3.5.2-5.7,3.4-9.8,3.3-17.6-.5-35.3-.2-53-.2s-5.1.4-7-2.1c-.5-.6-2.4-1.1-2.6-.8-2.2,3.2-5.4,2.8-8.7,3-4.1.2-7.5-.3-10.3-3.8-.4-.6-3.4.6-5.1,1.3-1.4.6-2.2,3.5-4.2.8-1.7-2.3-4-2.9-6.7-1.7-9.7,4.2-9.6,4-20.9,3.5-13.1-.5-26.2-.2-39.2,0-1.6,0-3.3,1.5-4.8,2.5-3.5,2.5-3.4-2.7-5.7-2.7-3.3,0-6.5-.1-9.8,0-3.3.2-6.5,0-8.5-3.1-2.6,1-5.2,2.6-7.9,3-4.3.6-9.2-1.2-12.4,3.6-.4.7-3,.9-3.6.3-5.8-6.2-13.3-3.7-20.1-3.7-24.8-.3-49.7-.1-74.6,0-4.5,0-9,.5-12.3-3.8-.4-.5-3.6.5-5,1.5-2.1,1.5-3.6,4.8-5.7,5.1-2.4.3-5.1-2.1-7.8-2.7-2.5-.5-5.2-.1-7.8-.1-4.6,0-9.2.2-13.7,0-4.9-.3-9.8,1.4-14.4-3.3-4.2-4.2-6.6,5.6-11.8,3.4-1.7-.7-4.1-.3-5.2-1.4-3.9-3.8-7.9-3.6-12.1-1-1.1.7-2,2.2-2.9,2.3-7.8.2-15.7,0-23.5.2-3,0-4.8-1.3-6.6-3.1-.3-.3-2,.5-2.6,1.2-2.9,2.9-5.5,2.5-8.1-.4-2-2.2-4.5-2.7-6.6-.5-2,2-3.9,2.9-6.7,2.8-8.5-.2-17,0-25.5-.1-5,0-10.5,1.5-14.1-3.9-3,.6-6.5-1.4-9.2,1.6-2.5,2.8-5.1,3.5-8.1.6-.9-.9-2-2-3-2-7.2-.2-14.4-.3-21.6,0-7.5.3-15.3-1.9-22,3.7-1.2,1-4.7,1-5.6,0-5.3-5.4-11.9-3.5-18.1-3.7-5.9-.2-11.8,0-17.7,0h-68.7c-5.9,0-12,1-17.6-.3-6.6-1.5-10.3,4.3-16.1,4.3s-9.1.4-12.1-4c-9.2,0-18.3.3-27.5-.1-3.9-.2-5.4,3.4-8.2,3.9-2.9.5-6.6,1.6-9-1.6-2.5-3.2-7.1-3.2-8.7-1.8-6.3,5.3-13.4,3.4-20.2,3.6-3.1.1-6.3-.5-9.4-.8-3.7-6.6-5.7,1.2-8.9,1.1-22.2-.4-44.5-.3-66.7-.1-2.5,0-3.2-1.9-4.8-2.8-2.7-1.6-2.8-1.6-6.7.4-1.6.8-3.3,2.2-4.9,2.2-3.7-.2-7.6,1.5-11.1-1.7-4.2-3.7-6.8,4.6-11.2,1.8-1.5-1-3.3-1.5-4.9-2.4-3.7-1.9-3.8-2-6.7-.4-1.1.6-1.9,2.6-2.8,2.6-11.8.2-23.5,0-35.3,0-2.9-5.4-5.4-1.4-8.6-.2-2.6.9-6.4,1.5-9-1.6-.8-.9-2.1-2.1-3-2-13.2,1.7-27.1-4.2-39.6,3.8-.5.3-1.3.2-1.9,0-.6-.2-1.2-.5-1.5-1-1.8-2.3-3.3-3.3-5.7-.4-.9,1.1-4.6,1.8-5,1.2-3.8-5.3-9.4-3.9-14.3-3.6-5,.4-9.9-1.3-15.1,1.3-7.5,3.8-11.5,3.2-19.7.5-1-.3-2.6-1.3-2.7-1.1-2.2,3.1-5.3,3.2-8.6,3.1-12.4-.1-24.9,0-37.3,0s-4.4,0-5.3-1.1c-4.3-4.8-9.7-2.4-14.6-2.6-1.4,0-2.8,2.4-4.2,3.6-3.5-5.6-9.2-3.6-14.1-3.8-4.9-.2-10-.8-13.8,3.3-3.7-5.5-9.4-3.1-14.3-3.3-9.8-.3-19.6,0-29.4-.1-3.9,0-7.7-.3-10.5,3.5-.5.7-3.9.3-5-.7-2.1-1.8-3.9-2.9-6.8-2.8-8.5.2-17,0-25.5.1-5,0-10.5-1.5-14.1,3.9-3-.6-6.7,1.6-9.1-1.6-2.5-3.2-6.7-3.5-8.7-2.1-7.6,5.4-16,3.4-24.1,3.6-10.5.3-20.9,0-31.4,0-9.8-7.6-21.2-3.4-31.7-3.7-24.2-.7-48.4-.1-72.6-.3-4.9,0-10.6,2.2-14.2-3.5-4.9.3-10.2-2.2-14.6,2.1-.8.8-2.2,1.4-3.3,1.5-10.5.1-20.9.2-31.4,0-1.6,0-3.1-1.9-4.8-2.5s-4.7-1.6-5.1-1c-3.3,4.6-7.9,3.6-12.4,3.6-22.2,0-44.5-.1-66.7,0-6.8,0-14.1-2.1-20.1,3.7-1,1-4.6,1-5.6,0-6-5.6-13.2-3.7-20.1-3.7h-186.4c-62.1,0-9.3.8-13.7-.3-3.1-.7-5.3-5-8.9,0-.9,1.2-5,.2-7.6.2h-39.2c-1.8,0-3.9.4-5.3,1.3-6,4.1-11,3.4-17.6,0-5.9-3.1-13.3-2.9-19.8,1.6-2.1,1.5-6.8,1.5-8.9,0-2.8-1.9-5.2-3.4-8.6-3-4.9.6-10.6-2.1-14.2,3.7-6.5,0-13,.2-19.5.3-3.1-4.2-7.5-4.2-12.1-4s-9.2,0-13.7,0h-80.4c-2.6,0-6.1,1.1-7.7-.2-3.8-3.1-6.9-6.3-11.1-.7-7.5,1.1-15.3,2.7-22.3-1-5-2.6-9.7-2-14.6-1.3-5.2,6.2-12.2,2.2-18.3,3.3-2.9-2.6-5.9-4.1-10.1-4.1-17.7.3-35.3.1-53,.2-1.8,0-4.3,0-5.3,1.2-4.3,4.8-9.8,1.8-14.7,2.7-4.2-6.2-10.5-3.6-16-3.8-5.6-.2-11.6-1.3-16.1,3.7-.5.5-2.7.2-3.6-.4-2-1.5-3.4-3.5-6.5-3.5-15,.2-30.1-.1-45.1.3-2.8,0-5.5,3.5-8.2,3.5s-5.4-2.8-8.2-3.4c-1.3-.3-3.5,1.2-4.7,2.4-1.3,1.5-1.8,1.6-2.9,0-.7-1-1.8-2.2-2.8-2.5-4.7-1-8.2,1.8-12.2,3.4-4.4,1.8-8.2-6.2-13.9-3.5-1.1.5-2,1.5-3.1,2-1.6.8-4.4,2.3-5,1.7-6.6-6.5-14.7-3.5-22.1-3.6-26.8-.4-53.6-.1-80.4-.2-4.5,0-8.5,0-12.4,3.7-2.6,2.5-5.2-2.6-8-3.5-3-.9-6.5,0-9.7-.2-2.5-.1-5.2,1-7.2-1.6-3.6-4.7-4.6,2-7.2,1.7-1.9-.2-3.9,0-5.9,0-5.2,0-10.5.3-15.7,0-5.5-.5-11.8,2.4-16.3-3.4,0,0-1.1.2-1.3.6-2.1,3.3-5.4,3-8.6,2.9h-11.8c-4,0-6.7-.6-9.8.1-4.7,1.2-6.2-4.5-10.2-4-2.4.3-5.2-1.2-7.3,1.4-2.3,2.9-5.1,3.9-8,.8-3.2-3.4-7.5-3.2-10.5-1.4-2.8,1.7-5.1,3.3-8.6,3.2-5.9-.2-11.8-.3-17.7,0-3.6.2-6-1.1-8.5-3.5-.8-.8-3.9-.3-5.1.6-5.9,4.7-11.2,3.7-17.5.4-4.9-2.6-10.8-3.6-15.9,1.2-1,1-4.5,1.4-5,.7-2.8-3.8-6.6-3.5-10.5-3.5-14.4,0-28.8-.3-43.2.2-4.1.2-6.4-2.7-9.8-3.3-3.2,5-8.2,2.9-12.4,3-4.9,0-10.6,1.9-14.1-3.7-3.6,5.4-9.1,4.1-14,3.7-7.4-.7-15.6,3-22-3.7-.5-.6-3.1-.3-3.6.4-2.7,3.9-6.5,3.5-10.4,3.5h-35.4c-6.5,0-13.2-.7-19.6.2-6.2.9-10.7-3.7-16.1-3.9-5.4-.2-11.8-2.6-16.2,3.4-5.2.1-10.4.2-15.6.3-3.1-6.4-11.3-1.3-14.9-6.6-1.7-2.6-7.7.5-6.9-4.5.8-5.1-3.4-8-4-12.2-.6-4.5,0-9.1,0-13.7v-17.7c0-5-1-9.9,3.6-14.3,2.5-2.4-3.5-5.5-3.4-7.9.3-6.1-3.5-13.1,2.8-18.4-1-2.6-2.8-5.2-2.9-7.8-.4-9.8-.2-19.6,0-29.4,0-3.9,0-7.4-3.4-10.5-1.3-1.2-1.6-6-.4-7.3,4.7-4.9,3.7-10.6,3.7-16.2v-68.7c0-5,1.5-10.4-3.8-14.3-.5-.4.3-3.8,1.4-5,3.6-4,3.8-8.1.5-12-2.5-3-3.1-5.3-.2-8.2.8-.8,1.9-2,1.9-3.1.2-5.2,1.2-10.8-.2-15.6-1.8-6.2,4.3-8.9,4.3-14.1-.2-28.1,0-56.2-.2-84.3,0-1.6-1.5-3.3-2.3-4.9q-1.8-3.6-.2-6.7c.9-1.6,2.5-3.2,2.5-4.8.3-6.5.3-13.1,0-19.6-.2-6.2,1.9-13-3.9-18,0-5.2.2-10.4.4-15.5,5.9-4.4,3.3-10.7,3.4-16.2.3-17,0-34,.2-51,0-4.9-2.2-10.6,3.3-14.3,0-7,1-14.3-.5-20.9-2.8-11.7-3.4-11.5.9-22.7.5-1.4,0-3.9-1.2-5.2-4.3-5.2-3-10.6-.9-16,.6-1.5,2.2-1.8.7-4.3-3.3-5.7-2.9-5.9-.3-11.9.4-.9,1.2-2.6,1-2.7-4.2-2.7-3.2-6.9-2.9-10.6.4-5.5-2.5-11.9,3.8-16.1-7.7-6.9-3-15.9-3.7-23.9-.8-8.4-.2-17-.2-25.5v-47.1c0-1.9.7-4.7-.3-5.7-4-3.8-4.1-6.2-.8-11.3s1.2-23.5-.9-30c-.3-.9-1.1-2.5-.9-2.7,4.8-3.3,2.9-8.3,2.9-12.6.2-30.1,0-60.2,0-90.2s.2-5.8,2.2-8.9c3-4.6,3-17.5,0-22-2-3.1-1.9-5.8-2.4-8.9-.7-4.2,1.4-7,3.6-10-4.9-3-3.4-7.9-3.4-12.3,0-6.9-1.1-13.8,3.6-20.1,1.4-1.9,1.3-6.4-2-8.7-.5-.4-.9-.9-1.4-1.4,3.3-2.8,4.1-5.5,0-8.3,6.7-5.7,3.2-13.3,3.4-20.1,0-3.3-2.9-6.7-3.5-10.2-.7-3.8,0-7.8,0-11.7v-9.8c0-3.8-.5-7.6-.7-11.5-6.4-3.5.5-5.9.9-8.8,1.3-8.6-4.3-18.3,3.7-25.9v-180.5c0-3.3-.3-6.6,0-9.8.2-1.7,2-3.1,2.6-4.8s1.5-4.6.8-5.1c-3.8-2.8-3.6-6.5-3.6-10.4,0-11.1.2-22.2,0-33.3,0-6.8,1.7-13.9-3.6-20.2-1.4-1.6-1.3-6.3,1.8-8.7,2.3-1.8,2.6-4.2.8-6.6-.8-1-2.6-1.9-2.6-2.8-.2-11.7-.2-23.5-.3-35.2,7.6-6.9,3.2-15.9,3.7-23.9.7-11.7.3-23.5,0-35.3,0-2.9.9-4.7,2.8-6.8,1-1.1,1.5-4.6.8-5-4.7-3.3-3.5-8-3.5-12.4v-156.9c0-52.3-.4-7.9,0-11.8.6-4.6-1.6-8.1-3.3-11.8,4.3-2.5,2.6-6.8,3.2-10.4,1.3-8-3.9-17,3.6-24,0,0-.6-1-1-1.3-4-3.2-3.2-5.9,0-9.6,2.5-2.9,2.5-7.2-.5-10.4-2.6-2.8-3.2-5.3-.3-8.2.7-.7,1.3-2.5,1.2-2.6-3.1-2.2-3.2-5.3-3.1-8.6.2-6.5,0-13.1,0-19.6v-60.8c0-6.5-1.1-13.3.3-19.6,1.5-7.1-5.4-11.4-4.3-18.1.7-4.5,0-9.1,0-13.7v-43.2c0-4.6.7-9.3-.2-13.7-1.1-5.3,4-7.9,4-12.1.2-18.3,0-36.6,0-54.9,0-1.6-2.1-3-2.7-4.7-1.8-4.6-2.3-9.7.9-14.4,2.6-3.8,1.2-7.4,2-11,.9-3.9-4.1-5.2-3.8-8.2.4-2.8,2.6-5.4,3.6-8.2.3-.9-.2-2.6-1-3.4-4.3-4.5-3.8-8.8-.3-13.5,1-1.3,1.7-4.6,1.1-5.1-5.9-4.5-3.2-10.6-3.3-16.1,6.5-5.8,3.2-13.1,2.8-19.8,0-1.7-3.5-2.3-1.1-5.7,3.8-5.5,2.9-12.3.6-18.2-1-2.5-2.5-3.3,0-5.8,2.1-2,1.7-6.7,1.4-13.8-.3-7.2-1-14.5.2-21.5,1.3-7.6-4.4-12.8-4.4-20,.4-53,.2-105.9.2-158.9s-.7-4.3,0-5.8c1.7-3.1,5.2-5.6,0-8.8-.5-.3.2-3.9,1.3-5,3.8-3.9,3.9-8.1.8-12-2.3-2.9-3.3-5.1-.5-8.2,1.1-1.3,2.2-3.3,2.1-4.9-.6-8.7,2.2-17.8-3.6-26-1.4-2-.7-5.9,1.9-8.8,3.4-3.7,3.3-8.3-.8-11.8-1.9-1.6-2-4.2-1.2-5.2,1.9-2.6,4.4-4.5,3.8-8.3-.6-3.7,0-7-2.7-10.8-2.9-3.8-2-9.4.5-14.3,3.2-6.3,3.1-6.7,0-11.9-1.5-2.4-2.7-4.5-.7-6.7,1.8-2,3.1-3.8,3-6.7-.2-9.1,0-18.3,0-27.5s-.7-17.1.2-25.5c.9-8.6-4.3-18.3,3.7-25.9-.5-.5-.9-1-1.4-1.4-2.8-2.4-4-5.1-.8-8.1,2.1-2,3.4-4.6,1.6-6.6-2.3-2.6-3.4-5-3.4-8.5.2-13.1,0-26.2,0-39.2s.4-7.7-3.4-10.5c-.7-.5,0-3.5.5-5.1.6-1.7,2.7-3.1,2.7-4.7.3-6.5.3-13.1,0-19.6,0-1.6-1.6-3.2-2.5-4.8-1.7-3.2-2.1-3.6.2-6.6,1.7-2.2,2.4-4.2,2.4-6.9,0-11.1,0-22.2,0-33.3s.6-4.8-.4-5.6c-5.8-4.6-3.3-10.8-3.4-16.3-.3-27.5,0-54.9,0-82.4s-1.3-7.5.2-9.6c5.4-7.6,3.3-16,3.6-24,.2-4.4,1.5-9.3-3.5-12.3,3.3-3.3,3.8-7.4,3.6-11.9s.6-9.1-3.9-12.1c2.3-2.2,5.9-5.1,3.3-7.9-3.1-3.3-3.4-6.6-3.4-10.5v-68.7c0-3.8,0-7.2,3.1-10.6,4.3-4.5-4.6-6.8-3.3-11.7.6-2.4.3-4.9,2.5-6.9,3.3-2.9,1.7-5.8-1.1-8-1.5-1.1-1.5-1.8.2-2.8,2.6-1.6,2.5-4.1,2.5-6.8,0-22.2.4-44.5-.2-66.7-.3-9.3,3.8-19.4-3.6-27.9-.5-.6-.2-2.9.6-3.5,2.8-2.3,3.7-5.1,3.3-8.5-.6-4.9,2.1-10.6-3.6-14.2,0-6.5-.2-13-.3-19.5,6.4-5.6,4.1-13.3,3.7-19.9-.5-8,4-17-3.7-23.9,1.4-7.9-3.4-16.9,3.8-24,.6-.6.3-3.1-.4-3.6-3.9-2.7-3.5-6.5-3.5-10.4,0-9.8.2-19.6,0-29.4,0-2.6-1.9-5.2-2.9-7.8,3.2-2,3.1-5.2,3.1-8.5v-64.7c0-1.8,0-4.4-1.1-5.3-3.1-2.5-2.8-5.6-2.7-8.8,0-3.3-1.3-7.6.3-9.6,2.7-3.3,3.8-6.3,3.7-10.4-.2-15.7-.3-31.4,0-47.1,0-4.1-1.3-7.1-3.7-10,7-4.4,1.4-8.3-.2-12.7-.8-2.1-.5-5.8.9-7.2,2.6-2.7,2.9-5.4,2.9-8.7v-100c0-1.8,0-4.2-1.2-5.3-5.5-5.6-1.6-12.4-2.7-18.5,8-7.6,2.8-17.2,3.6-25.9.4-3.9-4.3-7-4-12.1.2-4,2.3-6.6,3.6-9.9-5-3.1-3-8.1-3.2-12.4,0-2.5-.4-5.8,1-7.3,2.6-2.7,2.8-5.5,2.9-8.7,0-4.1,0-7.7-3.9-10.3-.6-.4-.6-3.3,0-3.7,4.6-3.1,3.9-7.7,3.9-12.2v-104c0-4.9-1-10.1,3.5-13.9-6-2.8-1.3-9.9-5.5-13.4-.6-.5-1.1-2.5-.9-2.6,4.3-2.7,2.8-6.9,2.9-10.6.2-5.2-.6-10.6.2-15.7.9-5.7-3.4-9.5-3.8-14.1-.9-10.4-.2-20.9-.4-31.4,0-2.5,2.1-3.1,2.8-4.8,1.9-4.6,2-9.5-.5-14.5-3.2-6.2-4.4-11.8.9-17.5.9-.9.7-3.8,0-5.1-1.1-1.9-3-2.5-1-5.8,3.1-5,2.9-9.9.5-14.3-1.3-2.3-2.6-4-2.6-6.8,0-24.8,0-49.7,0-74.5,0-1.8.3-4.1,1.5-5.2,4.4-4.5,2.8-10,1.7-14.5-.6-2.7-3.9-4.5,0-7-.2-8,3.8-16.4-2.7-23.9-1.3-1.5-1.6-6.1-.4-7.3,5.2-5.5,3.6-12,3.6-18.2s-1.8-3.1-2.4-4.8c-.6-1.7-1.7-4.7-1.2-5.1,4.6-3.3,3.4-7.9,3.8-12.3.5-4.8-.9-8.6-3.9-12.2-.5-.6-.2-3,.5-3.5,3.6-2.6,1.9-4.2,0-7.2-1.7-2.8-2.1-7.5,1.7-10.4,2.6-2,1.5-4.8,1.4-7.2,0-1.6-1.4-3.3-2.5-4.8-2.5-3.3,3.5-4.3,2.2-5.4-5.3-4.1-3.3-9.5-3.4-14.4-.2-26.2,0-52.3,0-78.5s.2-7.9,0-11.8c-.3-3.7-3.3-3.2-5.8-3.1h-2v-3.9c5.6-1.6,8.7-5.2,7.8-11.1-1.4-8.5,3.9-17.9-3.2-25.8-.2-.2,1.2-1.7,1.6-2.7,2.4-5.5,2.7-5.6-.7-11.8-2.3-4.3-3-8.3,1-11.9,1.4-1.3,1.3-1.5.2-2.9-4.6-5.6-4.4-11.2,0-17.1,2.3-3.2,2.6-7.4-.3-10.3-2.8-2.7-1-3.7.5-5.7.9-1.2,1.3-4.2.5-5-2.1-2.1-3.3-5.8-7.3-5.6v-15.7c3.3.5,4.1-2.8,6.1-4.2,2.7-1.8,0-2.8-.7-4.2q-2-3.4-.2-6.7c.6-1.1,2.6-2,2.5-2.8-1.3-9.3,3.6-19.3-3.7-27.9-1-1.1-.9-4.4,0-5.7,5.7-7.4,3.2-15.9,3.8-24,.3-3.5-.8-6-3.2-8.5-1.9-2-.8-4.7,1.4-6.6,2.3-1.9,2.7-4.5.7-6.6-1.9-2-3.1-3.8-2.9-6.7.3-3.2-.4-6.6.2-9.8.6-2.9,3.1-5.4,3.6-8.2.7-3.8.2-7.8.2-11.7s-.3-7.9,0-11.8c.3-3.7-2-8.1,1.5-11.1,5.1-4.3-2.5-5.5-1.8-9.3,2.2-11.1-3-22.9,4-33.7,2.2-3.5-4.6-5.5-3.9-10,.6-4.3,1.2-9.1-3.5-12.3-.6-.4,0-3.9,1.1-5,2-2.1,2.9-4,2.6-6.8-.3-2.5-.5-5.7,3.2-5.7s4.7-1.9,6.3-3.8c2.7-3.2,5.7-4.3,10.1-4.3,23.5.3,47.1,0,70.6.2,5,0,10.5-1.6,14.1,3.9,3-.6,6.5,1.4,9.2-1.5,1.1-1.2,2.3-3.3,4.1-.7,2.3,3.3,5.8,2.1,8.9,2.1,28.8,0,57.5-.2,86.3.2,6.7,0,14.4-3.5,20.2,3.1.2.2,1.2,0,1.3-.2,3.2-5,8.2-3,12.5-3,20.9-.2,41.8,0,62.7,0,4,0,7.6,0,10.4,3.7.5.6,3.5-.2,5.1-1,6.5-3.1,10.4-4.1,15.9-1.1,7.4,4.1,15,1.6,22.5,2.1,5-6.2,12-3.5,18.1-3.5,34.6-.3,69.3,0,103.9,0s7.3-1.3,9.7.2c12.1,7.5,25.2,2.6,37.7,3.5,11.7.9,23.5.2,35.3.2s7.8-.7,10.5,3.3c.5.7,2.9,1,3.5.5,8.5-7.4,18.6-2.6,27.9-3.7,5.8-.7,11.8,0,17.6-.2,1.7,0,3.6-1.2,4.8-2.4,1.3-1.4,1.5-.9,2.9-.2,7.2,3.5,12.3,3.7,19.7,1.2,1.5-.5,2.3-3.1,4.2-.6,2.9,3.8,7.2,2.2,10.8,2,4.7-.2,6.9,6.2,12.1,4.1,1.1-.5,2.7-.2,3.5-.9,1.9-1.7,3.2-3.9,5.7-.6.6.8,2.1,1.4,3.2,1.5,6.5,0,13.1.4,19.6,0,6.1-.4,12.9,2.6,18.2-3.6,1.1-1.3,5-.2,7.6-.2h13.7c4.6,0,9.2-.2,13.7,0,4.5.3,8.7,0,12-3.6,3,5,7.9,3.7,12.2,3.5,4.9-.2,10.6,2.2,14.4-3.2,0,0,1.7,1.1,2.7,1.5,6.3,2.2,9.6,2.9,14.4.5s3.1-2.5,5.8-.2c3.6,3.2,8.6,1,13,1.3,4.1-6.3,10.6-3.5,16.1-3.7,11.8-.4,23.5-.3,35.3,0,6.8.2,14.2-2.3,19.9,3.8,4.9-.7,10.5,2.1,14.4-3.2.5-.7,2.3-.6,3.6-.7,2.5-.2,3,4.8,5.7,2.8,2.1-1.6,3.8-3,6.7-2.9,4.5,0,9.1-.6,12.1,4,3-.7,6.7,1.6,9.2-1.5,3.1-3.8,8.1-3.6,10.4-1.8,3.4,2.8,6.6,3.3,10.5,3.3h45.1c5.6,0,11.6-1.3,16.2,3.7.4.4,3.5-.9,4.6-2.1,1.1-1.3.6-4.2,1.8-5,2.3-1.6,4.7-.5,6.6,1.7,2.5,3.1,6.1,1,9.1,1.6,3.5-5.4,9.1-3.8,14.1-3.9,5.9,0,11.8,0,17.6,0h66.7c5.2,0,10.8,1.1,15.6-.3,6.7-1.9,10.2,4.5,16.1,4.4,4.7,0,8.2-2.3,12.2-3.7,6.3-2.1,14,1.6,20-4.2.5-.5,3.5.8,4.8,2,2.2,1.9,4.3,2.6,6.7.9,1.1-.7,1.7-2.4,2.8-2.6,6.1-1.3,16.2.4,27.7,3.3,2.7.7,6.3,1.6,9.2-1.1,1.3-1.2,3.2-2.5,4.8-2.5,6.2,0,12.9-1.9,18,3.8,4.8-1,8.2,2.1,12.2,3.6s9,.3,13.6.3,13.1.2,19.6,0c2,0,4.9-3.3,5.7-2.7,8.3,6.2,17.7,1.2,26.3,2.9,5.5-5.5,10.8-6,16.4,0,.6.6,3.2.5,3.6,0,3.2-4.7,7.9-3.6,12.3-3.7,3.9,0,7.7-.3,11.6-.4,4.4-5.8,10.7-3.3,16.2-3.4,15.7-.3,31.4,0,47.1,0,2.5,0,5.1,0,7.6-.7.7-.2,1-2.1,1.4-3.2l.8-1.9ZM2612.3,3496.7c4.1-6.6,10.6-3.2,16.1-3.8,5.2-.5,10.5,0,15.7-.1,2.6,0,6.2.7,7.5-.6,4.9-5.3,10.9-2.7,16.4-3.2,4.5-.4,9.1,0,13.7,0,6.4-6.4,14.5-3.1,21.9-4,1.7-.2,3.7-1.1,4.9-2.3,2.2-2.4,4.9-.9,7.2-1.6,2.8-.9,5.6-3.9,8.1-3.6,6.8,1.1,11.1-6.9,18-4.4,2.9-4.9,7.8-4.1,12.2-3.6,4.9.5,6.8-5.8,12.2-4.2,3.6,1,7.7.8,10.4-3.2.6-.9,14.6-1,16.1-.6,3.9,1.1,5.9-3.8,8.2-3.6,10.6.8,17.4-9.1,27.9-9.2,3.6,0,7.1-4.6,10.9-6.5,3.3-1.5,7.3.7,10.8-2.7,2.9-2.8,7.5-3.6,11.3-5.6,2.2-1.1,4.2-3.8,6.2-3.6,4.8.3,8.3-1.8,12.2-4.1,3.1-1.8,7-4.3,10-3.7,5.5,1.1,7.1-5.1,12.2-4.6,2.2.2,4.3-4.6,8.1-3.6,2.4-3.9,6.1-4.2,10.2-4,1,0,2.5-.7,3.2-1.6,3.2-4.2,8.1-5.7,12.2-8.5,4.3-2.9,7.7-7.1,11.2-11,2-2.2,4.3-2.1,6.9-2.5,8.5-1.3,14.8-8.8,23.9-8.6.5,0,.9-.8,1.4-1.3,6.5-7,15.6-9.5,23.9-13.4,9.3-4.4,17.2-12,28.4-11.9.5,0,1.1-.6,1.5-1,3.3-4,7.4-6.5,12.2-8.5,2-.8,3.9-3.7,4.2-5.9.5-3.4,2.1-4.4,5-4.1,3.5.4,6.3-.5,8.4-3.4,1.2-1.5,2.8-4,4.1-4,5.5.2,7.1-5.3,11-6.9,4.8-2,8.1-6.3,12.3-8.1,4.3-1.9,7.5-4.3,10.7-7.4,3.7-3.7,7.7-7.2,11-11.1,3.4-4,7.9-6,12.2-8.4,3.2-1.8,7.6-1.4,9.6-5.4,1.9-3.9,6.4-3.5,9.5-5.6s4.4-6.3,9.1-6.5c5.4-.2,2-6.7,5.8-8.7,2.8-1.4,4.4-5.2,7.2-6.4,1.4-.6,3.5,5.3,6.9.7,2.3-3.1,5.2-5.9,8.3-8.3,6.2-5,9.7-14.6,20.3-12.5,1.9-2.5,4.1-4.8,5.7-7.4,1.6-2.5,3.6-5.4,3.8-8.2.3-5.3,5.1-2.7,6.8-4.8,3.1-3.9,8.2-6.1,9.3-11.9.4-2.2,2.7-4.5,4.7-5.7,3.3-2,1.7-7.4,4.1-7.9,7.7-1.7,11-8.4,16.3-12.8,5.8.9,6.3-2.6,6-7-.2-2.9.5-5,4.1-4.9,1.1,0,3.1-.9,3.1-1.5.4-6.7,6.1-9.5,10-13.5,1.8-1.8,6.2,0,6.5-5,.1-2.8,3.8-5.6,3.5-8.2-.9-7.5,2.4-12.3,7.7-16.6,2.4-2,5.3-4,4.3-8,2.6-1.4,5.6-2.5,7.9-4.3,3-2.4,5.9-5.3,8.3-8.3,2.7-3.3,7.1-5.1,7.7-10.6.4-3.1,6.7-5.5,7-8.6.5-4.8,3.6-6.7,6.2-9.3,2.8-2.8,1.5-7.6,5.5-9.6-1.1-4.9,3.7-7.6,5-11.7,1.4-4.4,6.7-7.6,10.3-11.4,1.7-1.9,4.9-4.2,4.6-5.7-1.4-7.3,3.8-10.6,7.9-14.5,3-2.9,5.1-5.7,4.2-10.1-.1-.6-.3-1.7,0-1.9,6.3-3.9,7.1-11.9,12.4-16.4.9-.7,2.2-1.3,3.4-1.3,2.4,0,3.3-1.2,3.8-3.3,2.3-9.1,3.9-14.8,8-18.1,4.3-3.5,3.3-9.6,8.1-12.5,5.7-3.4,2.7-9.3,3.6-14.2.5-3,3.5-4.6,4.3-8.1.7-3.3,5.6-5.4,7.2-8.7,1.5-3.2-1.4-7.9,3-10.5,1.2-6.2,2.5-12.1,8.2-16.4,2.8-2.1-.2-6.9,2.7-10.6,4.2-5.3,7-11.7,6.1-19.1-.2-1.5,1.7-3.1,2.4-4.8,2.3-5.6,6-10.8,8-16.3,2.1-6,2.9-12.2,8.6-16.1.7-.5.6-2.5.4-3.7-1.3-6.6,2.4-10.6,6.4-15.1,2.7-3,4.4-7.4,5.2-11.4.9-4.4.1-9.1.2-13.7,0-3.7,0-7.1,2.7-10.8,2.2-3.1,1.4-8.7,1.1-13.1-.3-4.8,6-6.9,4.2-12.2-.4-1.3,1.2-3.3,2-4.9,1.9-3.8,5.5-7.7,5.2-11.4-.4-5.7,5.3-8.7,4.4-14.1-.8-4.7,1.4-8.2,3.5-12.3,1.9-3.6,1.2-9.1.2-13.5-1.3-5.8,5.2-8.5,4.3-14.1-.6-3.7-1.2-8.8.8-11.2,2.9-3.5,1.9-7.3,3.3-10.6,1.3-3.3,3.5-6.3,4.8-9.8.6-1.7,2.7-3.2,2.6-4.7-.2-4.2,2.1-6.9,3.7-10.3,1.8-3.7.5-9,.4-13.5,0-3.3-.4-6.5,3-8.6,1.2-7.5,2.4-15.1-.9-22.3-.8-1.8-1.8-2.5,0-4.3,1.1-1.2,1.7-3.3,1.9-5,.9-8.7-1.9-17.7,3.7-26,2.2-3.3-1.6-8.8,2.7-12.6,3.4-3,1.1-7.4,1.4-11.1.4-4.5-.1-9.2.1-13.7.3-5.5-2.1-11.7,3.7-16.2.5-.4-.4-3.9-1.5-4.9-3.5-3.3-3.5-8.4-1.5-10.4,3.9-4,3.3-8.2,3.1-12.6-.2-4.9,2-10.4-3.2-14.4-.8-.6-.5-4.2.4-5,2.9-2.5,2.6-5.5,3-8.7.7-6.1-3.1-13.2,3.8-18-1-4.8,1.7-9.9-2.5-14.7-3-3.5-2.4-8.3,1.6-11.8,2.9-2.6,4.3-5.5,5.3-9.6,1.6-6.7,4.4-12.9,3.6-20.1-.5-3.9-.2-7.6,3.5-10.4.6-.5-.2-3.5-.9-5.1-.7-1.6-2.9-2.3-2.7-4.8.3-3.9,0-7.8,0-11.8s-.7-9.3.2-13.7c.9-4.7-4.4-6.1-4.2-10.2.2-3.3,0-6.2,3-8.7,1-.8,1.2-4.3.4-5-3.2-2.7-3.2-4.8.2-7.1-5.1-5.2-3.4-11.7-3.4-17.8s-2.6-4.3-4.1-6.2c-1.2-1.5-3.6-2.8-3.6-4.3-.2-2.9-1.6-4.6-3.2-6.6-2.6-3.4,1.2-9.3-4.2-12-.4-.2-.7-1.1-.6-1.6.1-1.2,0-3,.8-3.5,3-2.3,3.6-5.3,3.1-8.6-.8-5.5,2.2-11.6-2.3-16.7-4.4-4.9,2.1-13.4-5.5-17.3-.7-4.4,1.9-9.4-1.6-13-4.4-4.6-1.8-9.9-2.2-14.8-.5-6.5,0-13.1-.2-19.6,0-1.7-.5-4.1-1.7-5.1-4.6-3.5.7-10.8-5.5-13.5-.2-5.1-.5-10.3-.6-15.4-.1-5.8,0-5.9-4-14-2.5-5.1-4.7-10.1-3.9-16.1.4-3.1.9-6.6-2.6-8.7-1.6-1-1.4-1.7.2-2.8,4-2.8,2.3-6.9,2.1-10.6-5-3-3.8-7.9-3.5-12.2.4-4.8-5.9-6.8-4.2-12.2.7-2.2.5-6.2-.8-7.2-3.5-2.6-2.1-7.2-5.3-9.8-2.8-2.3-6.5-4.5-5.8-9.4,0-.4-2-1.7-3-1.7-3.2,0-4.6-1.3-4.6-4.6.1-5.9-.2-11.8.1-17.6.1-3-1-5.2-3.3-6.5-4.3-2.5-3.6-8-6.9-10.9-1.4-1.2-1.8-1.9-.5-2.8,2.7-1.8,2.8-3.3.2-5.7-2.3-2-5.9-3.6-5.2-7.6.9-4.6-1.5-7.5-4.7-9.8-3.9-2.8-1.8-4.4.2-7.2,1.3-1.7,1.5-5.9.3-7.4-2.5-3.2-3.4-6.3-4-10.3-.5-4-3.4-7.7-5.2-11.5-.8-1.6-2.3-3.3-2.2-4.9.4-6.2-1.7-10.6-5.8-15.5-3.2-3.8-7-8.8-6.1-15,.5-3.2-2.9-4.1-3.8-6.3-1.1-2.9.6-6-1.4-9.3-4.1-6.7-7.6-13.8-10.7-21.1-1.4-3.4-3.8-6.7-8.3-6.9-2.2,0-3.3-1.3-3.4-3.6-.3-10.8-.5-10.7-7.8-22.2,1.4-4.9-6.1-6.9-4-12.1.4-1,0-2.7-.5-3.6-2.3-3.7-7.7-5-7.5-10.7,0-1.4-2.2-3-3.6-4.3-5-4.3-9.4-8.8-8.3-16.2-5.5-.8-.7-11.9-9.5-9.5l-5.9-13.2c-1.3-5.5-5.2-13.4-8-16.3-1.8-1.9-4-3.5-5.5-5.6-1.7-2.5-3.1-5.2-4.2-8.1-1.8-4.8-4.1-9.3-8.4-12.2-5-3.4-6.2-8-5.4-13.5.6-4-.9-5.9-5.3-5.9s-2.5-2.8-2.4-4.3c.3-6-2.2-10.1-8.1-11.1-3.8-.7-4.8-4-7.5-5.7,1.6-4.6-4.2-6.1-4.2-10-.1-4.5-4.9-5.7-6.8-8.9-3.1-5.2-3.5-11.9-8.4-16.1,1.2-7.4-9.6-8.7-8.3-16.2-2.5-2.1-3.6-4.7-4.5-8-.8-2.7-4.3-4.7-6.6-7-3.7-3.7-7.6-7.2-11-11.2-1.5-1.7-1.7-6.2-2.9-6.3-5.8-.8-8.6-5.2-12.2-8.7-12.1-11.9-24.1-24-36.1-36s-7.4-7.4-11.1-11.1c-7.5,1.3-8.8-9.5-16.2-8.3-1.7-2.6-4.8-3.8-5.6-7.5-1.2-5.6-5.1-8.5-11.3-7.8-1.1,0-2.5-.4-3.4-1.2-2-1.7-3.6-3.8-5.6-5.4-2.9-2.3-4.6,3.5-5.2,2.1-2.1-4.6-11.7-1-9.7-9.3-4.3-5.3-11.5-8.5-12.6-16.4,0-.5-2.3-1.2-3.3-1-4.5.9-7.2-1.6-10-4.5-3.9-4.1-7.4-9.5-14.6-7.3-2.5-3.1-7.7-2.8-9.3-5.4-1.9-3.2-3-6.7-5.9-9.3-3.4-3.1-7-6.1-9.6-9.8-2.5-3.6-7.4-1.9-9.6-5.4-.7-1.1-2.6-1.8-2.6-2.8-.3-5.9-3.6-7.3-8.9-6.6-1,0-3.2-1.1-3.1-1.4,1-6.6-5-6.4-8.3-7.9-9.8-4.5-19-9.7-25.7-18.3-2.6-3.4-7.1-2.7-9.5-5.5-2.6-3-5.9-1.8-9-2-2.5-.2-5.2.5-7-2.1-2.7-3.8-6.6-5.4-10.8-7.1-3.4-1.4-4.6-7.3-9-6.4-5.3,1.2-7.7-4.3-12.2-4.1-3.4.2-6.2-.4-8.6-3.2-2-2.3-4.2-4.1-7.7-5.1-3.3-.9-6-3.9-10.3-3.7-5.2.2-7-5.1-10.3-8-2.5-2.2-4.9-4.6-8.3-3.5-8.1,2.6-14.3-4.4-21.9-4.1-4.6,0-1.3-6-4.5-7.2-8-3-15.3-7.3-22.9-11-7.6-3.7-15.1-7.7-22.8-11.3-1.6-.8-3.4-1.4-5.1-1.8-3.6-.7-7.9,1.6-10.8-2.4-2.8-3.7-8.1.7-10.5-2.9s-7.2-1.8-9.7-5.4c-1.6-2.3-5.6-1.5-8.1-4.1-2.9-3-9.1,1.1-11.9-4.3-.3-.7-2.4-.9-3.5-.6-5.5,1.4-8.3-4.9-14.1-4.3-5.9.5-13.1,3-18-3.5-6.5,0-13,0-19.6,0-5.5-7.1-13.2-3-20-3.8-3.9-.5-7.8-.2-11.7-.2-2.8-5-7.8-3.5-12-4.2-2.8-5.9-9.8-1.5-13.4-5.5-3.6-4-9.6-.5-13.7-5.2-2.9-3.3-9.5,1.2-14.4-2.9-4.6-3.8-11.2-1.4-16.9-1.6-2.8,0-5.1-.3-6.7-2.8-1-1.5-1.6-1.3-2.8.2-2.3,3-5.3,3.9-8,.6-3.6-4.4-10.7.5-13.5-5.5-3.2-.2-6.4-.5-9.6-.5h-25.5c-7.7-7.3-17.2-2.7-25.8-3.9-4.9-.6-10.6,1.7-14.1-3.9-4.4-.7-9.5,1.8-13-1.5-4-3.9-8.5-2.3-12.8-2.4-16.3-.2-32.7,0-49,0s-6.3,1-7.6-.3c-6.1-6.3-13.5-3-20.2-3.5-7.8-.5-15.7,0-23.5,0s-13.6,2-21.1,5.9c-1.6.8-4.3,2.3-4.9,1.8-7.3-6.6-16-2.9-24-3.7-4.4-.5-9.1-.9-12.3,3.7-.4.5-4.1,0-5-1.3-2.5-3.1-5.8-2.9-8.8-2.3-2.2.4-4.3,3.4-6,3-2.1-.5-3.4-3.5-6.5-3.2-7.4.7-15.4-1.9-21.9,4h-29.4c-3.7,4.9-9,3.9-14.1,3.9h-13.7c-1.8,0-4.6,0-5.2,1.2-3,5.1-9.1.5-12.1,4.1-3.7,4.3-8.5,1.8-12.7,2.6-1.1.2-2.4.8-3.2,1.6-5.1,4.4-11.5.6-16.6,2.5-5.6,2.1-10.5,6.3-16.5,7.5-3.8.7-7.8,0-11.7.2-1.8,0-3.7.4-5.5.9-11.6,3.2-11.5,3.1-22.7-.8-1.6-.6-3.9-.8-5.3,1.3-.7.9-1.8,1.6-2.7,2.3-3.5-5.7-5.7-1.5-8.4.9-1.3,1.3-2.9,2.8-4.6,3.1-3.2.5-6.6-.4-9.7.3-2.8.7-4.3,4.4-8.2,3.9-4.4-.7-9.2-.9-12.1,3.8-5.6-1.9-9.4,2.8-14.1,3.7-4.9.9-10.3-.7-14,4.1-6.3-2.2-10.2,3.8-15.7,4.9-2,.4-3.6,3.5-6.6,2.9-6.6-1.4-11,1.9-15.1,6.4-1,1.1-3.5,1-5.2,1.4-1.8.5-3.6.7-5.3,1.5-7.7,3.6-15.1,7.7-22.7,11.3-2.9,1.4-5.3,2.9-8.6,2.9-4.8,0-14.3,4.2-18.2,7.9-2.4,2.3-4.6,4.5-8.3,3.8-2.9-.6-4.5,2.1-6.6,2.9-5.7,2.1-10.8,6.7-17.6,4.9-6.7,4.3-16,2.9-21.3,10.4-1.7,2.4-4,4.3-7.4,5.6-5.3,1.9-9.7,6-11.3,11.9-.6,2.1-1.4,3-3.6,3.6-12.3,3-21.4,7.6-27.8,13.5-2.3,2.2-4.8,4.1-7.3,6.1-5.9-3.1-9,5.4-14,3.8-7.1-2.3-11.3,5.9-18.1,4.2-.9-.2-2.5.5-3.3,1.3-4.7,4.5-9.3,9.2-13.9,13.8-7.4-1.2-8.7,9.6-16.2,8.3-6.9,9.5-18.8,13.1-26.2,22.1-3.5,4.2-11,7.5-17.7,9.3-1.7.5-3.7.9-5,2-3,2.5-5.3,5.9-8.5,8.1-3.5,2.5-8,3.1-10.9,7-7,9.3-19,12.8-26.1,22.1-6.3-1.7-4.4,5.3-6.8,6.5-4,1.9-7.7,3.8-10.8,7.2-3.5,3.9-7.3,7.4-11,11.1l-12.5,12.5c-3.7,3.7-8,7-10.9,11.2-3.5,5.2-9.9,5.3-13.8,9.6-4,4.3-8.3,8.3-12.4,12.5-4.4,4.5-9.8,8.2-11.2,15-.1.5-.9.9-1.3,1.4-1.7,2-3.5,3.6-6.5,3.3-3.2-.3-5.3-.2-6.9,4.2-1.6,4.4-5.7,9-10,11-5,2.3-8.6,4-9.4,10.1-.5,3.7-7.5,0-8,6.2-.3,3.9-3.4,7.7-5.5,11.3-1,1.6-2.8,4-4.1,3.9-4-.4-6,2-8,4.5-1.9,2.4-5.8,3.5-5.6,7.4.3,5.3-4.7,2.9-6.6,4.8-.8.8-.7,2.3-1.3,3.4-4.9,10.2-10.3,19.8-22.1,24.1-3,1.1-6.9,4.5-5.3,9.3,1.9,5.8-2.1,9.7-4.2,14-2.4,5.1-6.6,8.7-12,11.4-4.4,2.2-7.6,6.6-11.4,10,2.2,9-5.7,12.2-9.9,17.5-1.1,1.3-1.6,3.3-1.8,5.1-.9,8.2-7,14.1-9.6,21.6-1,2.8-4.1,5.2-6.8,6.9-3.7,2.4-2.5,7-5.4,9.6-3.4,3-8.4,6-9.2,9.8-1.1,5.2-6.1,6.9-7.2,10.8-1.4,4.7-4.2,7.6-7.2,10.8-.8.8-1.9,2.3-1.6,3.2,1.6,6.2-5.9,9.9-4,16.1-2.8,4.7-4.1,10.2-7.8,14.4-.3.4,0,1.3,0,1.9-.7,7-3.3,13.3-8.8,17.9-2.9,2.5-3.4,5.3-3,8.6.3,2.3-.7,3.8-2.7,4.3-6.6,1.5-9.8,5.1-9.2,12.1,0,1-.7,2.6-1.5,3.2-6.4,4.2-6.8,10.4-6.3,17.1.2,3.1-.4,6.4-.6,9.5-7.3,4.3-7.8,11.2-7.3,18.6,0,.9-1.4,2.1-2.4,2.8-5,3.4-5.6,9.6-8.9,14.1-1.2,1.6-1.5,4.6-3.5,6.3-3,2.6-5.7,5.3-4.7,9.9.9,4.2-5,5.6-4,10.2.7,3.8,1.5,8.5-.2,11.5-1.9,3.4-4.2,6.2-3.7,10.3,0,1-.5,2.6-1.4,3.3-4.8,3.9-8,8.7-6.3,15,1.8,6.5-3.4,10.5-5.1,15.6-.9,2.8-3.1,5.2-2.8,8.6.4,4,.3,7.8-3.7,10.2.2,5.7-6.7,9.6-4.1,16,1.8,4.5-3.4,6.3-4.2,10.1-.8,3.3-4.9,5.7-6.8,8.9-2.1,3.6.8,9-4.2,12.1-1.1.7-.5,3.9-1.6,5.1-4.3,4.6-4,9,0,13.4,1.2,1.4,1.5,1.9-.2,2.9-3.6,2.1-1.9,7.1-5.4,9.6-2.2,1.6-1.3,4.6,1,6.5,2.2,1.9,2.7,4.2,1.2,6.7-1,1.6-2.8,3-3,4.6-.4,3.9.2,7.9-.2,11.7-.4,4.3,2,9-2.3,12.8-3.4,3-1.1,7.4-1.5,11.1-.5,5,1.5,10.5-4,14.1.6,3-1.4,6.5,1.5,9.2,1.2,1.1,3.3,2.1.7,4.2-3,2.5-3.3,5.3-.2,8,2.2,2,2.7,4.2,1.1,6.7-.7,1.1-2.5,1.8-2.6,2.8-.4,5.2-.7,10.4-.3,15.5.5,5.9-6.3,9.5-4.2,16.1,1.6,5.2-1.9,11.7,4,15.9-1.6,1.9-3.9,3.1-3.9,6.3,0,6.2,1.4,12.6-3.6,18.2-1.4,1.5-1.1,6,1.7,8.8,3.6,3.7,3.2,7.9,0,12-1.1,1.3-1.6,3.4-1.7,5.1-.2,4.4.7,9-3.8,12.3-.9.7.4,4-.3,5.6-1.5,3.5,6.1,4,2.4,7.5-2.9,2.7-2.4,5.8-2.2,8.9.5,7.4-2,15.1,3.6,22.1,2.4,3-1.9,9,2.3,12.7,5.9,5.1-2.1,7.5-2,11.3,0,2.5,0,5.4,1.3,7.2,1.6,2.2,2.9,4,2.7,6.8-.3,4.6.2,9.2,0,13.7-.3,4.2.5,7.6,4.2,10.1,2.8,1.9,4.5,4.6,3.8,8.2-1.2,6.1,3,13.1-3.2,18.3v21c5,3.1,2.7,8.1,3.2,12.4.3,2.5-.3,6.4,1.1,7.2,5.2,3.2.6,9.3,4.1,12.2,5.7,4.7-4.2,6.5-1.6,11.2,1.5,2.7,1.7,7.8-2.7,10.3l-.4,32.8c5.5,3.7,2.9,9.4,3.5,14.3.2,1.9-.2,4.7.8,5.4,4,2.9,3.6,7,2.9,10.6-.9,4.6,3.8,6.4,4,10.2.2,3.9.2,7.9,0,11.8-.2,4.1,5.7,5.6,4.2,10.2,0,.1,3.2,1.1,4.8,1.9,1,.5,2.8,1.8,2.6,2.3-2.2,7.4,6.5,12.5,4.1,20-2,6.5,2.5,12,3.6,18,1.1,6.3-.8,13.3.6,19.5.9,4,4.4,7.4,3.7,12.2,0,.9,1.6,1.9,2.2,2.9,2.1,3.7,2.9,8.2,6.9,10.9,3.8,2.5,2.4,8.5,6.9,10.9,1.5.8,3.4,3,3.3,4.4-.5,6.1,2.6,12.9-3.2,18.3-.8.7-.3,3.9.6,5,1.8,2.1,2.8,3.9,2.9,6.8,0,4.4-2,9.6,1.3,13.1,3.8,4.1,1.9,8.5,2.6,12.8.2,1.2.6,2.6,1.5,3.3,4,3.3,5.7,8.1,8.5,12.1,3,4.3,7,7.4,5.9,13.5-.2,1.1,2.3,2.9,3.6,4.3,3.7,3.7,7,7.9,11.2,11,4,2.9,3.6,8,6.9,11,3,2.7,1.2,6.1,1.7,9.1.4,3.1-.3,7.1,1.3,9.2,3.1,4,2.8,9.7,8,12.6,3.3,1.8,5.4,5.6,8.5,8.1,3.7,3-.2,8.1,2.8,10.6,4.6,3.7,2.7,8.3,2.8,12.6,0,4,0,7.8,4,10.2-1,3.8,3.8,5.9,3.6,8.1-.3,4.6,5.2,6,4.3,10.2-1,4.6,1.7,7.2,4.6,9.9,2.8,2.5,5.1,5.2,9.4,5.9,2,.3,5.8,3.1,5.6,7.1-.2,4,5.6,5.5,4,10.2-1.7,4.9,5.3,6.7,4.2,12.2-.6,3,2.6,6.6,3.5,10.1,2.3,8.3,4.7,13.3,9.1,17.8,4.1,4.2,8.3,8.3,12.5,12.5,4.4,4.5,9.8,8.2,11.1,15,9.6,6.9,13.3,17.9,18.1,27.8,1.5,3.1,3.4,5.4,5.6,7.4,1.7,1.5,5.8,1.6,6.2,3,.6,2.6,1.2,4.6,3.1,6.7,2,2.2,1.3,5.8,4.1,8.1,3.4,2.8,7.1,6.2,8.5,10.1,1.5,4.1,4.5,6.1,7,8.9,3,3.4,6.4,6.6,9.7,9.7,1.9,1.8,3,3.7,3.5,6.4,1,4.9,8.7,6,7.8,12.5-.1.8,1.7,1.9,2.6,2.8,1.8,1.9,4,3.5,5.5,5.6,1.9,2.7,6.6-.1,7.6,4.4.8,3.5,3.7,6.8,3.6,10.2-.2,5.7,3.2,8.2,7,10.5,8.8,5.2,8.8,5.1,13.4,14.2,3.4,6.7,11.1,17.5,16.8,20.3,3.4,1.7,6.7,3.1,9.3,5.8,4.1,4.2,8.3,8.3,12.5,12.5s9.2,9.3,13.9,13.9c4.2,4,8.5,7.9,12.7,11.8,8.8-.2,7.4,9.1,11.9,13,2.1,1.8,5.2,1.8,6.5,3,4.3,3.8,11.2,3.7,13.8,9.4.8,1.6.9,3.5,1.5,5.3.1.4,1.1.4,1.6.7,4.9,2.5,10.7,3.2,14.5,7.6,7.6-1.4,11.7,3.7,16.2,8.3,4.1,4.1,8,9.6,13,11.1,5.8,1.7,7.1,9.6,14.3,8.7,1.6-.2,4,3.2,5.5,5.3,3.8,5.3,8.5,9.6,13.2,9.9,3.5.2,6,1.1,8.4,3.7,3.5,3.9,7.1,7.7,11.1,11.1,4.3,3.6,10.2,5.7,13.3,10,3.9,5.3,10,.7,13.9,5.1,2.7,3,8,3.1,10.7,7.1,2.9,4.3,7.6,6.2,12.1,8.5,3.8,1.9,8.7,2.4,10.9,6.8,2,4,6.7,2.7,9.7,5.2,3.1,2.6,7.2,4.6,10.8,6.9,4.9,3.2,10.1,7.6,16.9,6.4,3.6-.7,6.5.8,8.2,3.7,2.9,4.8,9.5,3.5,12.4,8.1,5.7-2.2,9.5,2.2,14,4,8.4,3.4,15.6,9.2,24.5,11.9,2.8.8,4.4,4.9,7.2,6.4,6.4,3.4,13,8.1,19.8,8.6,7.4.6,13.2,3.6,18.8,7,4.3,2.6,11-1.3,13.6,5.3,0,.2,1.2,0,1.9,0,5,.2,10.5-1.3,14.1,3.9,5.6.2,11.7-1.3,16,3.9,9.1-2,16.7,5.7,25.9,4,.9-.2,2.3,1.1,3,2,1.9,2.5,2.8.3,4.2-.6,4-2.4,4.8-2.6,6.6-.3,4.4,5.7,9.9,7.3,17,6.7,4.2-.4,9.3-2.1,12.4,2.9,3.8.3,7.9-.2,11.3,1.1,4,1.5,7.3,4.6,12.2,3.8,3.2-.5,6.6-.6,9.8,0,2.9.6,5.4,2.9,8.2,3.6,3,.7,5.8.3,9,2.2,4.8,3,10.6,3.5,15.8-.7,2.7-2.1,3.1-1.8,6.6.1,1.1.6,1.9,2.3,2.9,2.3,11.1.2,22.2.2,33.4,0,1.1,0,2.4-.9,3.2-1.7,2.7-2.8,5.3-3.2,8.1-.2,2.7,2.8,5.7,5.4,8.3,8.4s1.8,1.7,2.9.2c3.4-4.5,8.3-2.3,12.6-2.6,4.5-.3,9.1,0,13.7,0,4.2,7.9,14.3-.2,18.7,6.9,5.1.3,10.4,1.5,15.3.5,5.9-1.2,8.3,5.9,14.2,4.4,4.3-1.1,9.1-.2,13.7-.2h15.7c4.6,0,9.5,1.1,13.7-.3,6.2-2,8.9,4.4,14.2,4.3,9.8-.3,19.7.6,29.4-.3,8.6-.8,18.3,4.3,25.9-3.6,5.2,0,10.5-.4,15.7,0,5.9.4,9.4-6.1,16.1-4.2,6.5,1.8,14.2-2.1,19.9,4.2,4.3-.8,9.2,2,13-1.8s2.4-1.8,4.3-.2c2.3,1.9,5.5,2.6,7.9,4.3,3.6,2.5,8.1,3.1,10.4.3,4.2-5,12.3.4,15.1-6.6,3,.6,6.4-1.3,9.2,1.5s3.2,2.2,4.8,2.3c5.2.3,10.5-.3,15.7.2,8.5.8,15.9-1.7,23.1-6,5-3,5.7-3.3,11.9.5,3.2,2,6.2.9,9.2,1.5,4.2-5.9,10.5-3.8,16-3.8s11.7-2.3,16,3.8l-1.6-.2Z"/>
  <path class="cls-1" d="M5023,5909.7h-15.7c-7.8-6.4-17.1-3.4-25.9-3.7-2.6-.1-5.2,1.9-7.8,2.9-3.2-5-8.2-2.9-12.5-3-10.5-.3-20.9-.3-31.4,0-4.3.1-8.7-1.7-12.8,2.2-4.2,4-9.9,1-15,1.5-4.5.5-9.1,0-13.7,0-4.1,7.3-8.2-.8-12.5-.3-4.7.6-10.5,2.6-14.3-2.9-7,0-14,0-21-.1-2.5,4.2-6.6,3.3-10.4,3.3h-100.1c-3.9,0-7.7.2-10.4-3.5-.5-.7-4-.2-5,.8-3.4,3.6-6.4,4-9.6,0-1-1.4-1.7-1.2-2.8.4-1.6,2.4-4.7,3.7-6.5,1.8-4.1-4.3-7.3-4.6-11.1,0-.6.7-3,1-3.5.5-7.8-7.3-17.3-2.4-25.9-3.8-3.2-.5-4.3,3.7-6.2,3.7-4.9-.2-10.3,2.4-14.7-2.4-1-1.1-3.5-1.2-5.3-1.2-5.9-.1-11.8-.1-17.7,0-3.3,0-5.8-1.2-8.7-2.7-3.6-1.7-9.5-2.3-12.8-.5-8.1,4.6-15.3,5.4-22.8-.4-5.2-.1-10.3-.2-15.5-.5-2.4-.1-3.6-6.4-7.1-1.3-1.9,2.7-4.8,1.1-7.3,1.3-3.2.3-6.5,0-9.8.1-4.1,8-14.2,0-18.8,6.9-.1.2-2-.4-2.6-1-3.9-4-8.6-1.3-12.9-1.9-2.5-.4-3.5,6.3-7.2,1.5-2.5-3.1-6.1-1.2-9.1-1.5-3.2-.3-6.5,0-9.8,0h-9.8c-4.8-6.6-11.9-3.4-18-3.8-6.5-.4-13.2-1-19.6.2-4.7.8-8.5,4.7-14.1,3.8-5.1-.8-10.5-.4-15.7,0-3,.2-4.7-1.2-6.6-3.1s-2.3-1-3.5-.8c-3.1.3-4.3,4.5-8.2,4-3.1-.4-7.2-.8-9.3.9-7.1,5.5-15,1.7-22.4,2.9-5-5.7-11.8-3.4-18-4-1.7-.2-3.1-1.8-4.8-2.5-1.7-.7-3.5-.9-5.3-1.3-2.9-.6-4.7,1-6.7,2.8-2.6,2.3-3.6-3.6-5.3-2-2.6,2.4-5.1,3.3-8.6,3.2-11.1-.2-22.2-.2-33.4,0-3.6,0-6-1.2-8.5-3.5-.8-.8-4.1-.3-5,.7-3.4,3.6-6.4,4.1-9.6,0-.4-.4-1.3-1.1-1.3-1-7.7,7.8-17.3,2.7-26,3.5-9.1.9-18.3.2-27.4.2s-18.4-.6-27.5.2c-10,.8-20.7-4-29.8,3.8-8.6-1.7-18.2,3.8-26.1-3.4-2.8.7-4.3,3.7-8,3.6-14.4-.4-28.8-.2-43.2-.1-2.7,0-5-.2-6.9-2.5-2.5-3.1-6.2-1.5-9.2-1.2-2.1.2-3,3.9-6.2,3.8-8.5-.3-17-.2-25.4-.3-6.3-7.3-14.7-2.3-22-3.7-1.8-.3-4.7-.5-5.6.5-4.7,5.5-10.9,2.5-16.4,3.4-15.3-7.6-31.6-2.5-47.4-3.9-3.1-.3-5.9,0-9,2-5.5,3.7-12.8,3.5-18.2.4-7.3-4.2-12.9-3.8-19.1,1.3-.8.6-3.5-.6-5-1.5s-2.3-2.7-4.3-.4c-3.6,4.3-8.6,1.3-12.8,2.1-7.7-7.1-17.2-2.9-25.8-3.9-3.9-.5-7.6-.2-10.4,3.5-.5.6-3.9,0-5-.9-2-2-4-2.8-6.8-2.7-7.8.2-15.7,0-23.5.1-2.9,0-4.8-.8-6.8-2.7-1.1-1-4.5-1.5-5-.9-2.8,3.8-6.5,3.6-10.4,3.6-22.9,0-45.8-.5-68.7.2-10.6.3-22-4-31.7,3.7h-21.6c-7.7-7.1-17.2-3.3-25.9-3.8-9.1-.6-18.5-1.3-27.4.3-6,1-11.5,4.3-18.1,3.7-6.5-.6-13.1-.1-19.6-.1s-13.1.2-19.6,0c-5.7-.2-12.3,2.2-17-1.4-5-3.9-9.9-1.4-14.8-2.5-4.8-6.9-8.2-.6-9.3,2.1-1.3,3-.8,5.9-5.4,5.8-13.1-.2-26.2-.3-39.2,0-5.9.2-9.5-5.8-16.1-4.3-6.2,1.4-13,.3-19.6.3h-17.7c-5.9,0-11.8-.3-17.7.1-3.7.2-6-1.4-8.3-3.8-.7-.7-3.4-.6-3.6-.2-3,6.9-10.8,1.8-15.3,6.4-3.1,3.2-9.1,1.8-14.2-.4-6.6-2.9-6.8-3.2-11.9-.1-4.4,2.7-8.1,3.1-12.1-.3-.9-.8-2.1-1.5-3.2-1.7-6.8-1.4-13.8,2.2-20.7-2.3-6.2-4-13.9-1.4-20.8-1.5-3.8,0-5.8-1.9-8.1-4-2.1,2.5-3.6,4.4-7.2.9-1.7-1.7-6.2-1.4-9.2-.9-3.5.6-6.7,3-10.2,3.6-3.8.7-7.8,0-11.7.3-1,0-2.2,1.2-3,2.2-2,2.5-4.7,1.6-7.2,1.6-4.4,0-6.8-5.4-12.2-4.1-3.7.9-7.8.2-11.7.2h-13.7c-.7,0-1.4.2-1.9,0-1.6-.8-3.1-2.1-4.8-2.6-2.4-.7-4.9-1.2-7.3-1.2-3.8,0-5.5,5.1-10.2,4-3.1-.7-6.5-.1-9.8-.1h-11.8c-1.3,0-3.1.6-3.8,0-6-5.2-13.2-3.7-20-3.8-7.2,0-14.4-.2-21.6,0-4.9.2-10.5-2.2-14.3,3.3-.3.4-1.1.5-1.7.5h-33.4c-8.4-7.6-18.5-3.4-27.8-3.7-18.3-.7-36.6-.2-54.9-.2s-10.5,0-15.7,0-9.2.9-12.1-3.9c-7.6,7.9-17.2,2.8-25.8,3.7-9.1.9-18.3.1-27.4.2-3.3,0-5.8-1.1-8.8-2.6-3.6-1.8-8.6-.7-13-.9-6.5,6.7-14.7,2.3-22.1,3.3-1.3.2-2.8-2.7-4.5-3.1-3.6-.9-7.4-1.8-10.7,1.6-1.1,1.1-4.5,2.1-4.9,1.6-5.1-6.3-12-3.4-18.2-3.7-7.8-.4-15.7.4-23.5-.3-3.3-.3-4.8,7.4-9.2,1.3-1.3-1.8-7,0-8.7-1.8-3.3-3.3-6.7-3.1-10.6-3.3-1,0-2.2-1.2-3-2-6.1-6-12.1-12-18-18.1-.8-.8-1.6-2.3-1.4-3.3.8-5.4-1.1-8.4-6.7-8.7-10.6-10.6-21.3-21.2-31.9-32-1.9-1.9.4-6.9-4.8-6.6-5.3.4-2.6-4.9-4.7-6.8-1.9-1.7-3.8-4.6-5.8-4.7-4.5-.3-5.5-2.3-5.1-6.2,0-.4-.9-.9-1.3-1.4-4.2-4.2-8.7-8-12.4-12.6-3.5-4.3-10.3-6.3-9.8-13.5-4.2-4.2-8.7-8-12.4-12.6-5-6.1-11.5-9.8-18.4-12.7-4.6-1.9-7.2-3.9-8.6-8.8-1.5-5.3-8.5-7.5-8.9-14,0-1.5-2.9-2.6-3.9-4.2-2.9-4.7-9.7-3.6-12.2-8.3-2.3-4.4-4.2-9-8.4-12.3-3.9-3.1-6.6-7.4-12.2-8.6-2.7-.6,0-8.4-6.6-6.8-2.8-2.6-5.9-5.1-8.4-8-2.5-2.7-6.8-4.4-5.9-9.3-4.1-4.2-7.9-8.7-12.3-12.5-4.2-3.7-6.8-9.2-13.5-10.1-2.6-.3-4.3-4.9-7.1-6.5-3.6-2.1-.4-10.3-7.9-8.6-2.8-2.7-5.7-5.3-8.5-8-3.3-3.2-6.5-6.5-9.7-9.7-2.8-2.8-5.7-5.4-8.3-8.4-2.2-2.5-4.9-.9-7.3-1.4-2.4-.5-3.7,1-3.9,3-.3,2.6-.1,5.2,0,7.8,0,3.9,0,7.3-3.3,10.6-1.4,1.5-.7,6.4.6,8.8s3.1,3.5,0,5.7c-2.6,1.9-1.1,4.8-1.3,7.3-.2,3.2.3,6.3-2.8,8.8-1,.8-1.3,3.8-.7,5.1,1.1,2.1,3.3,3.4,3.6,6.4.4,5.5-2.5,11.8,3.2,16.3.2.1,0,1.2-.2,1.3-6.9,4.2.4,12.8-5.4,17.5-1.2.9-2,4.6-1.5,5,5.3,3.8,3.7,9.3,3.8,14.3.1,8.5-.3,17,.2,25.5.2,3.8-2.5,5.4-3.7,8,3.2,2.2,3.8,4.4.3,7-.7.5-1,3-.5,3.5,5.1,4.6,3.7,10.5,3.8,16.1v19.6c0,4.5-.9,9.1,3.8,12.3.6.4.7,3,0,3.7-4.5,4.8-6,9.6-1,15,.3.4-.4,1.8-.7,2.7-.7,1.7-2,3.3-2,5-.2,13.7-.2,27.5,0,41.2,0,1.7,1.3,3.4,1.9,5,.4.9,1.1,2.6,1,2.7-3.9,2-1.8,7.6-5.5,9.6-3,1.6.5,7.3-4.5,7.3s-6.8,5.6-12.1,4.1c-7.2-2-15.7,3.4-21.9-3.9-10.4,0-20.9-.2-31.3,0-1,0-1.8,1.9-2.9,2.5q-3.2,1.8-6.7-.2c-1.4-.8-1.8-2.8-4.3-.8-4.9,3.9-10.8,3.8-15.7.2-3.1-2.3-6.3-2.3-9.1-1.5-3.1.9-5.6,5.3-8.8,0-.3-.6-3.2-.7-3.6,0-3.2,4.5-7.7,4.2-12.2,3.8-2.9-.3-4.7,1-6.7,2.9-2.1,2.1-4.6,1.5-6.7-.7-.7-.7-2.5-1.6-2.6-1.5-5.9,6.9-11.2,1.8-16.7-.7-4.5-2-8.4-5.4-14.1-4.1-5.3,1.2-11.7-1.9-15.9,3.9-4.2-6.3-10.6-3.2-16.1-3.6-6.5-.5-13.1-.1-19.6-.1h-35.4c-3.8,0-7.5.8-10.6-3-1.7-2.1-4.7-1.1-6.5,1.2-1.9,2.5-4.6,2-7.1,1.8-1.7-.2-3.7-1-4.9-2.3-2.2-2.4-4.9-1-7.2-1.6-1.7-.5-3.6-1.3-4.8-2.5-1.3-1.5-1.6-1.5-3,0-1.2,1.3-3,2.3-4.7,2.6-7.3,1.2-15.5-2.6-21.9,4-13.7,0-27.5.1-41.2-.1-2,0-4.5-3.3-5.8-2.8-2.2.9-3.6,3.1-6.6,3-6.5-.3-13.1,0-19.6-.1-2.6,0-4.6.8-7,2.2-5.8,3.4-12.7,3.4-18.2.4-6.4-3.5-11.6-4.3-17.5.2-1.3,1-3.5,1.1-5.3,1.2-7.8.1-15.7.2-23.5,0-2.9,0-4.5,1.6-6.7,2.9-1.9,1.2-5.8,2-7.2.9-6.2-4.9-13.3-3.5-20.1-3.7-7.5-.3-15.1,1.5-22.1-3.7-1.9-1.4-5.9-.6-8.8,1.9-3.1,2.7-4.2,2.7-6.4.4-2.7-2.9-5.9-3.4-8.8-2.4-4.7,1.6-8.5,4.9-14.2,3.9-4.4-.8-9.2.2-13.7-.3-4.3-.5-7,3.2-10.2,3.7-7,1.1-14.4.8-21.5.2-3.4-.3-5.7-4.7-10.2-3.9-3.8.7-7.1-.2-10.5-3.1-2.3-1.9-7.2-2-10.4,1.6-2.9,3.3-5.8,1.8-8-1.1-1.2-1.5-1.7-1.4-2.9.2-2.8,4-8,3.7-10.3,1.8-3.5-2.8-6.6-3.3-10.6-3.3-10.5,0-20.9.1-31.4,0-3.4,0-6,.8-8.6,3.2-1.7,1.6-2.5-4-5.4-2.1-1.6,1-3.1,2.7-4.7,2.8-11.8.2-23.5.2-35.3,0-1.6,0-3.2-1.7-4.8-2.5-3.6-2-6.9-1.8-10.7.2-12.6,6.5-12.6,6.4-22.8,6.4s-10.5.2-15.7,0c-4.9-.3-10.6,2.2-14.3-3.3-6.5-.2-12.9-.3-19.4-.6-4.4-.2-9.3,1.4-12.2-3.6-3.7,0-7.2-1.2-10.8,2s-8.1,3-12-1c-1.1-1.1-4.6-1.7-5-1-2.8,3.7-6.4,3.7-10.4,3.7-8.5-.1-17-.3-25.5,0-4.9.2-10.6-2.4-14.4,3.1-4.4.5-9.7-.4-12.9,1.7-3.6,2.4-4.4,1-7.3-.4-2.8-1.3-5.4-2.9-8.1-4.2-2.6-1.3-6.4-.3-9.7-.3-11.1,0-22.3-.6-33.3.2-8,.5-17-3.9-23.9,3.7-5.9,0-12,1-17.6-.3-4.7-1.1-8.6-4.5-14.2-3.8-5.1.7-10.5-.3-15.7.3-3.7.5-5.2-4.1-7.8-3.2-2.1.7-3.6,3.5-6.6,3-3.1-.4-7.1.4-9.2-1.2-2.9-2.2-5.5-2.8-8.8-2.8-13.7,0-27.5.7-41.2-.3-5.4-.4-6.8,5.8-12.2,4.5-4.3-1.1-9.1-.1-13.7-.2-5-.1-10.5,1.5-14.1-3.9-3,.6-6.5-1.4-9.2,1.6-.7.8-2.5,1.9-2.7,1.8-7.3-6.8-16.2-1.9-24.2-3.4-7.3-1.3-15.6,3.2-22.2-3.4,0-.1-1.7,1.4-2.7,1.8-5.4,2.1-10.9,3.5-15.9-1-2.9-2.6-6.2-.7-9.3-1.3-3.5,5.5-9.1,3.5-14.1,3.9-7.4.6-15.4-2.3-22,3.8-1.1,1-4.2.9-5.7,0-6.9-4.2-13.6-6.6-20.6-.4-.2.2-1.7-1.4-2.7-1.8-1.7-.7-3.7-1.9-5.2-1.5-14.4,4.6-14.4,4.7-26.7,1-1.8-.5-3.6-1-5.4-1.1-5.9-.1-11.8-.1-17.7,0-3.3,0-5.9-.7-8.7-2.8-2-1.5-7.2-1.8-8.8-.3-4.4,4-7.5,4.2-11.2-.4-.6-.7-3.1-.9-3.6-.4-5.2,5.6-11.9,3.7-18.1,3.8-24.2.1-48.4,0-72.6.1-2.8,0-4.8-.6-6.9-2.6-1.1-1.1-4.6-1.7-5-1.2-3.8,5.4-10.3,1.7-14.1,4-9.1,5.6-18.7,2.7-28,3.6-3.5.3-5.8-1.3-8.6-3.1-2.1-1.4-7.3-1.4-8.8.2-3.4,3.5-7,2.4-10.7,2.9-3.8.5-6.1-1.4-8.3-3.9-.3-.3-1.2,0-1.9-.1-4-.5-6.1,6.8-9.9,3.5-3.4-2.9-6.4-3.6-10.4-3.6-12.4.1-24.9,0-37.3,0s-6.3-.8-7.5.5c-4.9,5.4-10.9,2.7-16.4,3.3-3.8.4-7.9.8-10.4-3.3-.9.6-1.8,1.3-2.8,1.7-1.7.7-4.6,2.1-5,1.6-3.9-4.9-9.3-3.4-14.2-3.8-6.1-.6-13,2.6-17.9-3.7-2.4,4-6.2,3.9-10.2,3.8-4.9-.1-9.9.6-13.8-3.3-3.1,5-8.1,3-12.4,3.2-5.2.2-10.5.4-15.7,0-6.1-.5-13.1,2.7-18.1-3.6-5.9,0-11.7,0-17.6-.3-5-.2-10.2,1.4-14.3-3.7-1-1.3-6.3-1.3-7.4,0-3.5,4.2-7.9,3.4-12.3,3.8-8,.8-16.9-3.3-23.9,3.8h-37.3c-5.9-5.3-13.1-3.6-20-4-3.5-.2-6.2.8-8.5,3.5-.6.7-3,1-3.5.4-5.9-6-13.3-3.4-20.1-3.8-6.5-.3-13.1,0-19.6,0-3.5,5.4-9.1,3.8-14.1,3.9-5.2.1-10.5.3-15.7,0-4.2-.3-6.9-5.1-12.2-4-4.4.9-9.1.2-13.7.2h-25.5c-3.3,0-6.5-.2-8.6,3-.2.3-1.2.5-1.3.4-4.5-7-8.6.3-12.7.1-7.3-.2-15.7,3.9-22-3.4-9.8,0-19.6-.1-29.4-.2-3.2,0-5.8-.5-8.9-2.3-5.6-3.2-12.7-3.4-18.1,0-4.3,2.8-6.5,2.6-9.8-.7-1.1-1.1-3.6-.9-5.4-.9-13.7,0-27.5,0-41.2-.1-3.4,0-5.9.9-8.6,3.2-1.6,1.3-5.9,1.8-7.2.6-6.8-6-14.7-3.2-22.1-3.6-1.6,0-3.5,1.2-4.8,2.3-3.3,2.9-5.5,1.4-8.2-1-1.2-1.1-3.7-1.7-5.2-1.2-12.7,4.3-12.7,4.4-22.7.6-3.6-1.4-7.4-2-10.6,1.1-3.3,3.1-7.5,3.1-10.5.9-2.9-2.1-5.3-3-8.7-2.9-9.2.1-18.3,0-27.5.1-3.2,0-5.2-1.9-6.1-4-4.3-9.4-12.2-17.5-10.1-29.2.9-5.5-2.1-11.8,4-16-7.5-6.2-3-14.6-3.7-21.9-.8-8.4-.2-17-.2-25.5v-23.5c0-7.8-.3-15.7,0-23.5.3-6.8-2.3-14.3,3.8-20-.2-3.9.7-8.2-.8-11.4-1.4-2.8-3.4-5-3.2-8.6.4-7.7.6-15.5.8-23.2,4.2-2.7,2.1-4.8-.6-6.9,0-9.1-.3-18.3,0-27.4,0-1.5,3.6-4,3.5-4.1-7.8-7.8-2.6-17.4-3.5-26.1-.9-9.1-.2-18.3-.2-27.4v-80.4c0-9.2-.2-18.3,0-27.5.2-4.9-2.4-10.5,2.9-14.5.2-.2-.6-1.8-1-2.7-2.7-6.4-3.1-6.8.3-11.9,2.1-3.2,1.1-6.2,1.6-9.2-5.2-4.4-3.7-10.4-3.9-16-.2-4.5-.7-9.1,3.8-12.1-4-2.4-4-6.2-3.9-10.2.2-4.6,0-9.2,0-13.7s0-6.5,0-9.8c-.3-7,5.7-12.3,4.3-20-1.4-7.6-.3-15.6-.3-23.5v-90.2c0-7.2,0-14.4,0-21.6.2-6.8-1.9-14.1,3.8-20,.7-.7.6-2.8,0-3.8-6.8-12.7-2.7-26.4-3.9-39.6-.2-1.7-1.2-3.6-2.4-4.8-1.4-1.3-1.6-1.8-.2-2.9,2.8-2.2,4.4-5.1,1.1-8-3.6-3.2-2.9-7.2-1.9-10.6,3.7-12.1,3.8-12.1,0-22.7-.5-1.5-.5-4,.3-5.2,1.6-2.1,3.1-3.7,3-6.7-.2-13.7.3-27.5-.3-41.2-.2-4.6-4.9-8.4-3.9-14.1s.2-11.7.2-17.6-.4-10.5,0-15.7c.5-5.1-2.4-10.8,1.4-15,3.7-4.1,1.6-8.6,2.6-12.8.4-1.7,1.8-3.2,2.9-4.7,1.8-2.5,5.2-3.8,5-7.8,0-2,1.5-3.1,3.9-3.1,5,0,10.4,1.2,14.1-3.9,3.9.1,7.8.2,11.6.3,3,5,7.9,3.6,12.2,3.6h35.3c2.5,0,6.1.7,7.4-.7,4.2-4.3,7.5-4.4,11,.3,1.4-1.1,2.8-2.3,4.2-3.4,3.6,5.3,9.1,3.7,14,3.8,5.2.1,10.5,0,15.7,0s6.5-.5,8.6,2.9c.8,1.3,1.5,0,2.8-.5,8.1-3.3,13.5-3.7,19.7-.2,3.4,1.9,5.5,2.4,8.2-.4,2.9-3.1,5.7-2.2,8,.7,1.2,1.6,1.6,1.5,2.9.2,1.2-1.2,3.1-2.6,4.7-2.6,13.7-.2,27.5.3,41.2-.3,4.6-.2,6,4.6,10.2,4.2,3.2-.3,6.5,0,9.8,0,3.8-.1,7-.2,10.7-2.8,3.8-2.7,9.7-2.3,14.3.8.8.5,2.3,1.3,2.7,1,8.2-6.4,17.6-1.6,26.3-2.9,4.4-.6,9.1.8,12.2-3.9.4-.6,3.1-.7,3.7,0,7.1,7.4,15.9,2.6,23.9,3.5.8,0,1.7-1.8,2.8-2.6,2.4-1.8,4.5-1.3,6.7.8,3.9,3.6,7.9,3.4,12,.2.7-.6,2.5-1.1,2.6-1,2.7,4.3,6.9,2.9,10.6,2.9h56.9c3.1,0,5.8.4,8.9,2.2,5.8,3.3,12.2,2.1,19.7-1,2.2-.9,5-1.6,7.3-1.1,2.9.6,5.4,3.3,8.2,3.5,2,.1,4.1-2.4,6.2-3.6.5-.3,1.5-.3,1.9,0,7.8,7,17.2,3.6,25.9,3.7,24.2.4,48.4.2,72.6.2s10.5,0,15.7,0,9.3-1.3,12.2,3.7c2.6-3.2,6-4,10.1-3.8,7.8.3,15.7-.4,23.5.3,3.3.3,5.3-7.7,8.9-1.1,3.8.3,7.6.7,11.4.9,3.9.2,7.8,0,11.8,0h33.4c3.9,0,7.9.2,11.8,0,3-.2,4.6,1.5,6.6,3.2.8.7,2.9,1.2,3.5.7,9.9-7.7,21.2-3,31.8-3.6,13.7-.9,27.5-.1,41.2-.2,4,0,7.6,0,10.4,3.6.5.6,3.4-.3,5.1-.9s3.2-2.5,4.8-2.5c5.9-.3,11.8-.3,17.6,0,2.9.1,4.6-1.2,6.8-2.7,3.2-2.3,7.3-2.5,10.4.5,2.1,2.1,4.8,1.4,6.9,2.4,3.9,1.7,6.9-7.9,10.7-.6,5.2.1,10.4.3,15.5.4h113.7c4.4,0,9.2-1.1,12.2,3.7,7.8,0,15.7.1,23.5.2,3-4.5,7.5-4,12.1-4s4.6,1.6,6.8,2.7c2.5,1.3,7.4,2.1,8.8.7,3.3-3.2,6.6-3.4,10.5-3.4h25.5c3.8,0,7.1,0,10.7,3,2.4,2,7.4.7,11.2.9,6.4-6.4,14.5-3.6,21.9-3.8,11.1-.3,22.2-.1,33.4,0,4.4,0,8.8-.7,12.4,3.6,1.1,1.3,6.1,1.4,7.4.1,7.3-7.2,16-2.7,24-3.4,1.8-.2,3.6,5,6.2,3.4,12.1-7.5,25.2-2.8,37.7-3.6,13-.9,26.2-.4,39.2,0,2.6,0,5.2,1.9,7.8,3,3.9-5.4,9.5-3,14.4-3,47.1-.2,94.2,0,141.3,0s11.8.2,17.7,0c4.9-.2,10.6,1.8,14.1-3.8,1.4,1.3,2.9,3.7,4.2,3.6,4.9-.2,10.5,2.3,14.5-2.7.3-.4,1.2-.7,1.3-.6,8.6,7,18.7,3,28,3.3,19.6.7,39.2.2,58.9.2s7.8-.7,10.5,3.3c.5.7,2.9,1,3.5.5,8.5-7.4,18.6-3.5,27.9-3.6,36.6-.5,73.2-.2,109.9-.2s9.2-1,12.1,3.9c3.7-.4,7.9,1.7,10.6-2.6.9-1.5,1.7-1.2,2.8.3,2.9,3.9,8.2,3.7,10.3,1.7,4-3.9,8.2-3.2,12.6-3.2h115.8c4.3,0,9.2,1.5,12.4-3.3.5-.7,2.9-1,3.5-.5,7.8,7.3,17.3,3.6,25.9,3.6,64.7.3,129.5.2,194.2.2s9.1.9,12.2-3.8c.4-.6,2.7-.5,3.7,0,2.2,1.1,3,4,6.3,3.9,8.5-.3,17,0,25.4-.5,2-.1,3.8-5,6.2-3.3,10.1,6.7,21.2,3.1,31.8,3.6,10.4.6,20.9,0,31.4.2,3.5,0,5.7-1.7,8.5-3.2,3-1.7,7-1.6,10.6,1.4,3.2,2.7,4,2.5,6.5.5,4.7-3.8,9-4,13.5,0,.8.7,2.2,1.1,3.4,1.1,3.9.1,6.3-8,11.4-2,3.6,4.2,8.6,1.6,12.9,2,3.9.4,7.8,0,11.8,0h13.7c4.6,0,9.2.3,13.7,0,5.5-.5,11.8,2.4,16.2-3.4,3.9-.1,7.7-.4,11.6-.4h237.4c79.1,0,9.5,1,13.6-.3,3.3-1,5.8-4.9,8.6.3h176.6c5.6,0,11.7-2,16.1,3.8.4.6,3,.4,3.6-.3,3.7-4.4,7.1-5.2,11-.3.2.2,1.1.2,1.3,0,5.2-5.2,10.1-4.6,14.8.6,3.7-.2,7.4,1.3,10.8-2.3,2.4-2.5,3.6-2.5,6.4.1,3.5,3.3,8,3.5,10.6,1.7,6.7-4.7,12.5-4.7,18.9-.1,2.3,1.7,4.7.7,6.7-1.5,2.8-3.1,5.4-2,8.2.5,1.2,1.1,4.6,2,5,1.5,3.8-5.3,9.3-3.7,14.3-3.8,3.2,0,6-.2,8.8-2.7,2.6-2.3,3.9,3.7,7.6,2.8,3.1-.8,6.5-.2,9.8-.2s6.6-.2,9.8,0c3.5.3,6.2-.5,8.5-3.3.6-.7,2.9-1.1,3.5-.6,8.5,7.4,18.6,3,27.9,3.6,11.7.8,23.5.1,35.3.2,1.8,0,4.2,0,5.3,1.1,2.2,2.2,3.3,2.7,5.8.2,2.4-2.3,2.9-1.9,6.6.2,1,.6,2.6,2,2.7,1.9,5.2-5.9,12.1-2.9,18.3-3.4,5.9-.4,11.8-.2,17.6,0,1.7,0,3.4,1.1,5,1.9,5.4,2.8,10.9,3.5,15.8-.5,2.5-2,2.9.1,4.3.9,3.4,2,3.9,2.4,6.6,0,4.1-3.6,8-3.7,12.1-.9,5.3,3.7,10.5,3,16,.5,6.3-2.9,6.7-3.3,11.9,0,3.2,2.1,6.1,1.2,9.2,1.7,6.4-6.4,14.5-3.1,21.9-3.9,3.3-.4,4.3,3.8,6.2,3.7,4.9-.2,10.3,2.4,14.7-2.4,1-1.1,3.5-1.2,5.3-1.2,33.4,0,66.7.2,100.1-.3,5.2,0,7.6,4.3,12.1,4.2,3.9,0,7.9.2,11.8,0,4.3-.3,9.3,1.8,12.4-3.2,8,0,16.2-3.5,24,2.6,2.5,1.9,7,1.6,10.6-1.5,3.1-2.7,3.7-2.2,6.6-.5,6.5,3.7,6.6,3.7,13.4-.1,2.6-1.5,4.8-1.7,6.7.6,2.5,3.2,5.8,2.2,8.9,2.2s5.5-6.5,8.7-.3c3.4-3.3,7.4-3.8,11.9-3.6,4.5.2,9-.5,12.3,3.9.4.5,3.4-.6,5.1-1.4,1.4-.6,2.1-3.3,4.2-.7,2.9,3.6,7.9,3.5,10.3,1.4,3.5-3,6.8-3.1,10.6-3.1,9.8,0,19.6.4,29.4-.2,5-.3,8.1,3.5,12.1,3.9,8.4.8,17,.2,25.5.2,2.8-3.2,5.7-4.5,8.5,0,4.9-.7,10.1,1.7,14.7-2.7,1.8-1.6,6.1-1.4,9-.7,2.1.5,3.3,3.6,6.4,3.4,7.1-.4,14.2-.5,21.3-.6,2.5-3.8,4.3-2.3,7.1,0,1.6,1.3,6.1,1.6,7.3.3,4.8-4.9,10.6-3.6,16.2-3.7,10.5-.1,20.9,0,31.4,0s9-.5,12,3.8c2.9-4.9,7.8-4,12.2-3.7,4.9.3,10.5-2.4,14.5,3,.1.2,1.7-.8,2.7-1.2,6.2-2.5,6.5-3,11.9.5,3.2,2.1,6.2,1,9.2,1.5,4.3-5.5,10.5-3.9,16-3.9h155c4.9,0,10.4-1.5,14,3.7,6.3-7.3,14.7-2.1,22-3.8,2.1-.5,3.9-2.8,6-2.9,1.4-.1,3,2.9,4.5,2.9,13.1.3,26.2,0,39.2.2,3.1,0,4.3-2.6,6.4-3.6,1.3-.6,3.6.1,5.2.8,1.1.4,1.9,2.5,2.8,2.6,6.5.2,13.2.8,19.6-.2,2.5-.4,5.1-5.7,7.9-3.1,3.3,3,6.5,3.8,10.5,3.4,4.3-.4,9.3,1.8,12.4-3.2h21c2.5,4.3,6.9,2.3,10.3,3.5,2.6.9,5.5,3.9,6.4,6.5,2.5,7.3,7.2,11.5,14.4,13.3,1.9,3.9,6.8,2.7,9.6,5.5,2.2,2.2,3.6,5.8,7.4,5.7,4.1-.1,5.6,5.7,10.1,4,.9,2.2,1.3,5.1,2.9,6.6,5.5,5.1,9.4,12.2,17.6,14.2,2,.5,4.1,3.4,4.8,5.7,2.1,6.6,6.1,11.3,12.8,12.6,5,1,1,10,8.2,8,3,2.2,6.6,4,6.8,8.5,0,1.1.9,2.4,1.8,3.1,3.5,2.6,5.1,7.5,10.4,8.1,5.4.6,2.9,7.5,7.2,10,3.8,2.2,6.2,8.2,9.9,9,4.4,1,6.6,3.6,9.3,6.1,3.8,3.6,9.1,6.7,10.8,11.2,4,10.3,13.4,15.4,19.8,23.2,1.7,2,3.5,3.2,6.5,3.4,4.5.3.8,9.9,8.2,7.7,3.3,3.2,6.6,6.3,9.6,9.6.2.2-3.3,2.8-3.1,4,.2,1.6,2.2,3.1,3.8,4.1,2,1.3,4.8,1.5,6.6,2.9,3.1,2.4,5.6,5.5,8.4,8.2l11.1,11.1c2.8,2.8,6.1,5.2,8.2,8.4,2.2,3.3,6,1.6,8.3,4,3,3.1,5.6,7.2,10.8,7,1.8,4,3.6,7.6,6.7,11.1,4,4.4,11.7,3.5,13.8,9.5,4,11.8,15.1,17.2,22.4,25.9.3.3,1.4-.2,1.9,0,3.8,1.8,8.1,3.2,11.3,5.8,5,4.1,9.4,9.1,14,13.8.8.9,2.1,2.2,1.9,3.1-1.5,8,4.7,11.8,9.3,15.7,6.7,5.7,10.5,15.1,20.5,16.8,1.4,2.7,2.5,5.6,4.2,8,1.4,2.1,3.8,3.6,5.3,5.7,10.6,15.4,13.7,18.6,28.9,29.2,1.6,1.1,2.8,2.7,4.4,3.7,4.4,2.9,5.9,7.8,8.4,11.9,5.7-.7,7.1,4.8,10.7,7.3,2.4,1.6,1.9,4.5,2.9,6.6,2,4.3,7.4,4.5,10.5,7.2,7.5,6.3,13.9,13.8,21,20.5,4.1,3.8,6.9,9.6,13.6,9.8,2.5,9.9,13.1,13.8,17,22.4,2,4.5,4.8,6.3,8.5,8.9,7.2,5.1,14.3,11.4,18.8,18.7,4.9,7.9,12.3,13,17.9,20,8.6,1.1,12.2,8.9,17.7,14,5,4.7,11.2,8.5,12.9,16.2.6,2.7,4.4,4.7,6.7,7,10.2,10.2,20.6,20.1,30.4,30.7,2.9,3.1,7.3,2,9.7,5.3,1.9,2.6,6.1,4.4,6.5,7,1.1,6.6,6.3,9.5,10.1,13.5,3,3.1,5.3,7.5,10.2,8.4,5,.9,8.2,5,9.9,8.5,2.3,4.6,9.8.6,9.8,7.4s4.4,6.1,7.1,8.7c2.6,2.6,4.3,6.7,8.9,6.8,5.7,0,2.2,6.6,6,8.5s3.8,2.7,6.4,3.5c5.4,1.7,7.7,6.2,7,12.1-.3,2.7,1.4,3,6.8,8.7,4.1,4.4,9.9,5.5,13.9,9.5s8.7,8,12.3,12.6c2.6,3.4,6.8,3.1,9.6,5.5,3,2.5,5.6,5.5,8.4,8.3-1.3,5,2.8,8.3,5.7,9.1,4.2,1.1,6.7,3.3,9.4,6,10.7,10.6,21.4,21.2,31.9,31.9,4.8,4.9,6.1,12.7,12.6,16.3,3.8,2.1,8,3.1,10.9,6.9,3.2,4.1,7.3,7.5,11,11.2s6.4,6.5,9.7,9.7c2,1.8,3.4,3.6,3.2,6.6,0,.7,1.8,2.4,2.5,2.3,10.7-1.6,13.6,8.5,20.2,13.1.2,5.8,6.7,8.1,7.9,12.4,1.8,6.5,5.7,8.5,11.2,11,11.7,5.3,18.8,13.1,24.8,24.5-1,3.9,1.8,6,4.2,8.1,2.6,2.2,4.1,4.6,3.8,8.3-.4,3.9-.5,7.9,0,11.8.6,4.8-2.6,8.2-3.7,12.2-1.1,4.3-2.9,4.5-6.4,4.9-8,.9-16.9-3.6-23.9,3.8h-17.7l.7-.5Z"/>
</svg>